<?xml version="1.0" encoding="UTF-8"?>
<svg xmlns="http://www.w3.org/2000/svg" version="1.1" viewBox="0 0 167.5 199.9">
  <defs>
    <style>
      .cls-1 {
        fill: #fff;
      }

      .cls-2 {
        fill: #231f20;
      }

      .cls-3 {
        fill: #f1bf22;
      }

      .cls-4 {
        fill: #ebebeb;
      }

      .cls-5 {
        fill: #e6a329;
      }
    </style>
  </defs>
  <!-- Generator: Adobe Illustrator 28.7.1, SVG Export Plug-In . SVG Version: 1.2.0 Build 142)  -->
  <g>
    <g id="Layer_1">
      <polygon class="cls-5" points="145.6 42.8 85.5 42.8 85.5 42.8 25.4 42.8 36.7 165 85.5 178.8 85.5 178.8 85.5 178.8 85.5 178.8 85.5 178.8 134.3 165 145.6 42.8"/>
      <polygon class="cls-3" points="85.5 52.7 85.5 168.5 85.5 168.5 125.1 157.3 134.7 52.7 85.5 52.7"/>
      <polygon class="cls-1" points="117 67.7 56.1 67.7 51.9 113.5 52 113.2 103.7 113.2 102 132.6 85.5 137.3 68.8 132.5 67.8 120.8 52.6 120.8 54.7 144.2 85.5 152.9 116.3 144.2 120.5 98.2 65.7 98.2 66.4 82.9 104.4 82.9 105 91.7 120.3 91.7 117 67.7"/>
      <path class="cls-4" d="M85.5,67.7h-29.4l-4.2,45.8v-.3h33.6v-15h-17.7l.7-15.3h17v-15.2ZM67.8,120.7h-15.2l2.2,23.5,30.8,8.7v-15.6l-16.7-4.8-1-11.7Z"/>
      <polygon class="cls-2" points="73.8 24.8 63.1 24.8 63.1 32.4 73.8 32.4 79.5 32.4 81.5 32.4 81.5 9.6 73.8 9.6 73.8 24.8"/>
      <path class="cls-2" d="M107.9,9.7h-18.6v8c2.5,2.5,3.8,3.7,7.4,7.3h-7.4v7.3h18.6v-7.3l-7.4-7.3h7.4v-8Z"/>
    </g>
  </g>
</svg>