<!--?xml version="1.0" encoding="utf-8"?-->
<!-- Generator: Adobe Illustrator 18.1.1, SVG Export Plug-In . SVG Version: 6.00 Build 0)  -->

<svg version="1.1" id="_x32_" xmlns="http://www.w3.org/2000/svg" xmlns:xlink="http://www.w3.org/1999/xlink" x="0px" y="0px" viewBox="0 0 512 512" style="width: 256px; height: 256px; opacity: 1;" xml:space="preserve">
<style type="text/css">
	.st0{fill:#4B4B4B;}
</style>
<g>
	<path class="st0" d="M100.165,278.507l21.505,29.364c4.758,6.489,11.916,10.828,19.886,12.028
		c7.954,1.208,16.078-0.821,22.544-5.628l29.226-21.706c9.243-9.025,15.386-20.981,17.31-33.767l12.762-84.586l-122.516,18.494
		l-7.31,48.428C91.647,253.919,93.982,267.147,100.165,278.507z" style="fill: rgb(75, 75, 75);"></path>
	<path class="st0" d="M465.617,459.933l-1.336-8.679c-1.779-11.562-10.169-20.942-21.408-24.025l-21.915-7.657l-0.378-0.121
		l-0.378-0.096c-3.028-0.781-5.298-3.284-5.766-6.376l-11.602-75.182c-0.636-4.122,0.032-8.365,1.876-12.093l32.72-41.946
		l0.789-1.023l0.628-1.111c10.072-17.874,13.896-38.887,10.772-59.16l-18.815-122.008l-2.609-16.932l-16.932,2.609L264.136,108.82
		l-16.94,2.608l1.691,10.958l-2.198-0.33L99.481,99.851l-16.94-2.56l-2.56,16.94L61.56,236.294
		c-3.06,20.29,0.837,41.287,10.966,59.137l0.636,1.103l0.781,1.014l32.857,41.842c1.852,3.72,2.528,7.971,1.9,12.085l-11.344,75.23
		c-0.468,3.083-2.722,5.604-5.749,6.393l-0.378,0.096l-0.387,0.121l-21.875,7.721c-11.24,3.124-19.589,12.536-21.336,24.098
		l-1.304,8.687l-2.56,16.932l16.94,2.552l106.928,16.144L184.566,512l2.56-16.94l1.312-8.679
		c1.74-11.561-3.462-23.027-13.284-29.322l-18.623-13.833l-0.322-0.233l-0.338-0.193c-2.656-1.659-4.074-4.726-3.607-7.818
		l11.352-75.214c0.62-4.122,2.52-7.979,5.386-10.99l43.734-30.289l1.063-0.724l0.934-0.878
		c14.935-14.065,24.854-32.978,27.913-53.266l13.856-91.84l12.117,78.588c3.124,20.272,13.1,39.161,28.09,53.17l0.934,0.869
		l1.055,0.733l43.838,30.152c2.875,2.995,4.783,6.844,5.419,10.966l11.593,75.183c0.475,3.092-0.926,6.158-3.583,7.817l-0.33,0.21
		l-0.322,0.218l-18.59,13.904c-9.798,6.328-14.968,17.802-13.18,29.363l1.337,8.671l2.617,16.932l16.924-2.608l106.879-16.482
		l16.932-2.608L465.617,459.933z M225.707,261.068c-2.504,16.585-10.507,31.842-22.712,43.339l-44.958,31.134
		c-6.111,5.749-10.112,13.373-11.36,21.666l-11.353,75.223c-1.489,9.862,3.044,19.669,11.522,24.918l18.888,14.017
		c4.244,2.625,6.506,7.536,5.757,12.463l-1.304,8.672L63.258,476.366l1.321-8.672c0.733-4.928,4.347-8.953,9.17-10.209l22.189-7.817
		c9.645-2.512,16.867-10.547,18.357-20.41l11.352-75.222c1.248-8.293-0.314-16.771-4.46-24.058l-33.766-43.01
		c-8.277-14.588-11.424-31.528-8.921-48.114L96.92,116.782l147.208,22.214L225.707,261.068z M341.814,479.015l-1.337-8.672
		c-0.757-4.928,1.49-9.839,5.725-12.48l18.839-14.073c8.462-5.281,12.963-15.096,11.441-24.966l-11.593-75.183
		c-1.272-8.285-5.298-15.901-11.425-21.625l-45.054-30.989c-12.254-11.457-20.297-26.69-22.858-43.268l-18.807-122.008
		l147.128-22.688l18.807,122.008c2.56,16.577-0.531,33.533-8.752,48.146L390.29,316.34c-4.114,7.295-5.66,15.773-4.38,24.066
		l11.586,75.182c1.521,9.871,8.775,17.866,18.429,20.361l22.213,7.746c4.831,1.24,8.454,5.249,9.219,10.176l1.336,8.672
		L341.814,479.015z" style="fill: rgb(75, 75, 75);"></path>
	<path class="st0" d="M389.742,294.223l21.416-29.435c6.135-11.368,8.429-24.613,6.466-37.39l-8.39-54.378l-121.654-12.125
		l13.035,84.546c1.972,12.777,8.148,24.71,17.43,33.711l29.282,21.61c6.481,4.782,14.605,6.778,22.568,5.555
		C377.859,305.092,385,300.736,389.742,294.223z" style="fill: rgb(75, 75, 75);"></path>
	<polygon class="st0" points="312.846,4.839 297.886,0 282.275,48.21 297.234,53.05 	" style="fill: rgb(75, 75, 75);"></polygon>
	<polygon class="st0" points="245.94,48.25 230.224,0.081 215.265,4.952 230.989,53.13 	" style="fill: rgb(75, 75, 75);"></polygon>
	<polygon class="st0" points="201.61,74.53 160.581,44.789 151.346,57.526 192.383,87.259 	" style="fill: rgb(75, 75, 75);"></polygon>
</g>
</svg>
