<!--?xml version="1.0" encoding="utf-8"?-->
<!-- Generator: Adobe Illustrator 18.1.1, SVG Export Plug-In . SVG Version: 6.00 Build 0)  -->

<svg version="1.1" id="_x32_" xmlns="http://www.w3.org/2000/svg" xmlns:xlink="http://www.w3.org/1999/xlink" x="0px" y="0px" viewBox="0 0 512 512" style="width: 256px; height: 256px; opacity: 1;" xml:space="preserve">
<style type="text/css">
	.st0{fill:#4B4B4B;}
</style>
<g>
	<path class="st0" d="M249.705,184.735c-19.705,0.01-37.458,7.964-50.394,20.87c-12.906,12.936-20.86,30.69-20.87,50.394
		c0.01,19.706,7.964,37.458,20.87,50.394c12.936,12.906,30.69,20.86,50.394,20.87c19.706-0.01,37.458-7.964,50.394-20.87
		c12.906-12.936,20.86-30.689,20.87-50.394c-0.01-19.705-7.964-37.458-20.87-50.394C287.163,192.699,269.41,184.745,249.705,184.735
		z" style="fill: rgb(75, 75, 75);"></path>
	<path class="st0" d="M249.705,108.488c-81.462,0-147.512,66.05-147.512,147.512c0,81.462,66.049,147.512,147.512,147.512
		c81.472,0,147.512-66.05,147.512-147.512C397.217,174.538,331.177,108.488,249.705,108.488z M249.705,347.155
		c-50.346-0.01-91.144-40.809-91.154-91.154c0.01-50.346,40.808-91.144,91.154-91.154c50.346,0.01,91.144,40.809,91.154,91.154
		C340.849,306.346,300.05,347.145,249.705,347.155z" style="fill: rgb(75, 75, 75);"></path>
	<path class="st0" d="M21.915,172.576C4.075,234.032,0.307,272.782,0.307,272.782s-1.942,23.58,3.943,23.58
		c5.876,0,20.443,0,20.443,0v85.464c0,9.216,7.488,16.704,16.704,16.704h12.946c9.216,0,16.704-7.488,16.704-16.704V139.148
		C71.048,115.568,39.601,111.655,21.915,172.576z" style="fill: rgb(75, 75, 75);"></path>
	<path class="st0" d="M497.908,126.057h-0.039c-5.604,0-6.167,4.545-6.167,10.149v64.69h-16.248v-64.69
		c0-5.604-4.545-10.149-10.149-10.149s-10.149,4.545-10.149,10.149v64.69h-19.074v-64.69c0-5.604-0.563-10.149-6.167-10.149h-0.038
		c-7.779,0-14.092,6.313-14.092,14.092v60.747c0,26.105,6.808,33.117,13.674,39.983c7.459,7.459,11.256,9.945,11.256,18.647
		c0,8.702,0,36.836,0,36.836v85.464c0,9.216,7.489,16.704,16.704,16.704h12.946c9.216,0,16.704-7.488,16.704-16.704v-122.3
		c0-8.702,3.797-11.188,11.256-18.647c6.866-6.866,13.674-13.878,13.674-39.983v-60.747C512,132.37,505.687,126.057,497.908,126.057
		z" style="fill: rgb(75, 75, 75);"></path>
</g>
</svg>
