<!--?xml version="1.0" encoding="utf-8"?-->
<!-- Generator: Adobe Illustrator 18.1.1, SVG Export Plug-In . SVG Version: 6.00 Build 0)  -->

<svg version="1.1" id="_x32_" xmlns="http://www.w3.org/2000/svg" xmlns:xlink="http://www.w3.org/1999/xlink" x="0px" y="0px" viewBox="0 0 512 512" style="width: 256px; height: 256px; opacity: 1;" xml:space="preserve">
<style type="text/css">
	.st0{fill:#4B4B4B;}
</style>
<g>
	<path class="st0" d="M256,0C114.613,0,0,114.614,0,256c0,141.387,114.613,256,256,256s256-114.613,256-256
		C512,114.614,397.387,0,256,0z M374.427,291.355c-11.79,11.218-30.452,10.75-41.653-1.032l-47.306-49.726v117.799
		c0,16.282-13.185,29.467-29.468,29.467c-16.282,0-29.46-13.186-29.46-29.467V240.597l-47.314,49.726
		c-11.194,11.783-29.864,12.25-41.645,1.032c-11.798-11.218-12.267-29.863-1.032-41.653L252.605,127.71
		c0.887-0.927,2.113-1.452,3.395-1.452c1.282,0,2.508,0.524,3.396,1.452L375.46,249.702
		C386.686,261.492,386.226,280.138,374.427,291.355z" style="fill: rgb(75, 75, 75);"></path>
</g>
</svg>
