<?xml version="1.0" encoding="UTF-8"?>
<svg xmlns="http://www.w3.org/2000/svg" version="1.1" viewBox="0 0 146.02 165.78">
  <defs>
    <style>
      .cls-1 {
        fill: #2c84c7;
      }

      .cls-2 {
        fill: #cd4549;
      }

      .cls-3 {
        fill: #fff;
      }

      .cls-4 {
        display: none;
      }
    </style>
  </defs>
  <!-- Generator: Adobe Illustrator 28.7.1, SVG Export Plug-In . SVG Version: 1.2.0 Build 142)  -->
  <g>
    <g id="_レイヤー_2" data-name="レイヤー_2" class="cls-4">
      <rect class="cls-3" width="134.14" height="165.78"/>
      <rect class="cls-1" y="-1.36" width="146.02" height="171.27"/>
    </g>
    <g id="_レイヤー_1" data-name="レイヤー_1">
      <path class="cls-3" d="M109.06,83.27c5.79-6.18,9.17-13.67,9.17-21.75,0-18.21-17.24-33.46-40.36-37.4l-3.44-17.21h-16.76l2.82,16.44c-26.2,2.04-46.62,18.36-46.62,38.18,0,10.03,5.23,19.16,13.79,26-13.46,7.62-21.9,18.59-21.9,30.78,0,23,30.02,41.64,67.06,41.64s67.06-18.64,67.06-41.64c0-14.7-12.27-27.63-30.81-35.04Z"/>
    </g>
    <g id="_レイヤー_3" data-name="レイヤー_3">
      <polygon class="cls-2" points="115.85 73.02 15.95 72.51 19.11 78.86 111.96 79.78 114.11 76.51 115.85 73.02"/>
      <path class="cls-2" d="M132.25,98.94l-117.2-1.8c-.72,1.8-.27,1.8.2-.21l1.33-1.32c1.71-1.72,4.34-3.68,5.52-4.55l102.69.94s.67.38.67.38l3.51,2.99c.84.99,3.4,3.63,3.28,3.57Z"/>
      <rect class="cls-2" x="101.58" y="93.55" width="7.11" height="24.76" transform="translate(-38.88 66.76) rotate(-30)"/>
    </g>
  </g>
</svg>