<?xml version="1.0" encoding="UTF-8"?>
<svg xmlns="http://www.w3.org/2000/svg" version="1.1" viewBox="0 0 456 614">
  <defs>
    <style>
      .cls-1 {
        fill: #fafbfc;
      }

      .cls-1, .cls-2, .cls-3, .cls-4 {
        stroke: #fcfafa;
        stroke-miterlimit: 10;
      }

      .cls-5 {
        fill: #5a646d;
      }

      .cls-6 {
        mix-blend-mode: multiply;
        opacity: .66;
      }

      .cls-7 {
        isolation: isolate;
      }

      .cls-2 {
        fill: #fdfeff;
      }

      .cls-3 {
        fill: #f6f6f6;
      }

      .cls-4 {
        fill: #c6c6c6;
        opacity: .58;
      }
    </style>
  </defs>
  <!-- Generator: Adobe Illustrator 28.7.1, SVG Export Plug-In . SVG Version: 1.2.0 Build 142)  -->
  <g class="cls-7">
    <g id="_レイヤー_1" data-name="レイヤー_1">
      <g class="cls-6">
        <path class="cls-5" d="M449.14,427.43c0,138.62-109,176-212,176S15.14,568.06,15.14,429.43,232.14,13.43,232.14,13.43c0,0,217,275.38,217,414Z"/>
      </g>
      <g>
        <path class="cls-1" d="M221.21,175.82l-.62-.43c-.35-.51-.55-1.09-.59-1.76.78-5.59,2.66-10.94,4.38-16.21l-1.91.47c-.39.12-.74.16-1.09.16h-.86c-1.09-.16-1.95-.59-2.85-1.17l-.74-.82c.59.12,1.13.27,1.64.47s1.09.27,1.72.23c1.88-.35,3.59-1.21,5.31-2.3.82-2.19,1.6-4.41,2.19-6.8l-.31-.55-.82-.55c.12-.27.27-.35.47-.31.59.04,1.09.27,1.52.74.27.51.43,1.02.51,1.6-.12.47-.23.94-.31,1.37-.2.55-.27,1.05-.31,1.48.51.55,1.06.94,1.64,1.13l.12.51c-.43.23-.82.55-1.21.9l-1.06,1.17-.31.31c-.35.16-.66.39-.9.74-.51,1.64-1.05,3.24-1.56,4.84s-.98,3.2-1.41,4.8c-.78,3.4-1.6,6.6-1.95,9.84l-.66.12ZM240.27,172.07l-.31.04c-2.34-.2-4.73-.39-6.56-1.91l-.31-.27c-.47-.43-.86-.86-1.21-1.33l-.27-.23-.43-.62.27-.16c.74.62,1.6,1.05,2.58,1.25.94.23,1.84.47,2.73.66.74.04,1.48.12,2.15.16.66.08,1.37.12,2.03.12l.74-.04c.66.12,1.29.35,1.84.78l.16.51-.2.27c-.47.16-.9.35-1.29.59-.43.27-.9.35-1.45.27l-.47-.08ZM234.33,163.95c1.21-1.41,2.27-2.62,2.93-4.18-1.21.62-2.23.98-3.44,1.09l-1.52-.2-.7-.43-.04-.31.51.08c1.29-.43,2.46-1.09,3.52-2.07,1.05-.94,2.19-1.6,3.44-2.03.74.04,1.37.23,1.95.66.23.2.35.43.35.7-.12.27-.31.55-.59.74-.51.51-1.05,1.05-1.56,1.64s-1.02,1.17-1.52,1.68l-.27.27c-1.25,1.21-2.34,2.19-3.59,3.01l.55-.66Z"/>
        <path class="cls-1" d="M225.97,212.54c-1.09-1.13-1.56-2.58-2.03-3.95l2.54,2.46c1.13,1.13,2.38,1.88,3.79,2.3,1.41.43,2.73.98,3.98,1.68.2.23.35.51.43.78-.51.47-1.09.66-1.68.59-2.66-.51-5-1.95-7.03-3.87ZM235.5,203.21c-.43-.66-.82-1.25-1.17-1.76-.39-.51-.74-1.02-1.05-1.52-1.76.82-3.09,1.45-4.65,1.76-.51.04-.98.12-1.33.16-.35.08-.78.12-1.21.08-.23-.08-.43-.2-.59-.35l-.31-.39h.31c2.38-.51,4.81-1.37,6.88-2.81-.16-.51-.31-1.02-.47-1.45-.2-.43-.31-.86-.39-1.37l-1.41.74c.51-.59.86-1.21,1.13-1.88l-.31-.98c-1.21.47-2.23.43-3.32.43l-.43-.12c-.62-.2-1.17-.39-1.64-.66l.47-.16.74.08c1.41-.16,2.54-.9,3.59-1.68l.08-.35c-.51-1.6-.86-3.4-2.42-4.65-.27-.12-.47-.31-.55-.55l.55.08c1.21.31,1.91.86,2.7,1.52.2.35.39.66.66.94l.59,1.88c.74-.43,1.37-.86,1.88-1.37.2-.2.47-.23.74-.2l.39.08.43-.08c.43.04.82.12,1.25.2l.2.55c-.04,1.09-.78,1.95-1.41,2.77-.31.35-.66.66-1.05.94-.43.27-.82.59-1.21.9,0,1.25.2,2.34.62,3.28l1.56-1.09.08-.51c-.16-.7-.39-1.33-.7-1.91l.78.23c.12.2.31.31.51.39.43.16.82.31,1.21.51.35.2.78.31,1.25.35l-.23,1.02-3.63,2.85c.59,1.02,1.33,1.91,2.15,2.66.82.78,1.64,1.56,2.38,2.34l.12.66c-.12.2-.31.35-.51.47h-.39c-.74,0-1.48-.08-2.19-.23-1.45.31-2.97.59-4.41.74,1.29-.66,2.54-1.48,3.75-2.54Z"/>
        <path class="cls-1" d="M236.13,252.38c.59-.66,1.13-1.33,1.72-1.95.59-.59,1.05-1.25,1.41-1.91.59-1.52,1.02-3.28,1.17-5v-1.76c-.16-3.24-1.8-6.25-3.87-8.79-.2-.23-.47-.39-.78-.43.43,1.45.59,2.81.62,4.1l-.04.47c-.04,1.6-.43,2.93-.74,4.22v.43c-.59,2.3-1.88,4.06-3.48,5.78-.31.31-.66.55-1.05.66l-.86.66c-1.41.74-2.77,1.6-4.06,2.5-1.33.94-2.81,1.48-4.41,1.64l-.35-.35-.47-.35v-.55c-.12-.2-.12-.43-.08-.7-.16-1.99-.2-3.95-.08-5.94.62-4.34,2.42-8.32,5.39-11.45,2.07-1.76,4.34-3.63,6.99-4.1l.35.12c2.23-.16,3.79,1.05,5.23,2.42,2.3,2.85,4.02,6.21,4.06,9.96-.04.62-.04,1.29,0,1.95-.35,2.62-1.13,5.27-3.01,7.27l-1.13,1.02c-.2.08-.43.2-.62.31-.9.66-1.8,1.17-2.77,1.52l-2.93,1.05c1.41-.62,2.58-1.76,3.79-2.81ZM223.63,250.63c2.66-1.21,4.96-2.97,7.15-5.04,2.38-2.93,3.79-6.52,3.83-10.31-.04-1.41-.35-2.73-.94-3.98l-.59-.04c-2.03.62-3.75,2.11-5.47,3.55l-1.45,1.48-.27.43c-.43.51-.86,1.09-1.25,1.68-1.37,1.99-2.19,4.3-2.46,6.68.04,1.99.23,3.83.7,5.66l.74-.12Z"/>
        <path class="cls-1" d="M228.98,293.87c-1.76-2.38-1.95-5.2-1.84-8.12.23-4.77.27-9.53.12-14.3,0-1.41-.47-2.62-1.41-3.59l-.35-.2-.08-.62h.43c.66.2,1.25.51,1.8,1.02,1.6,1.6,1.76,3.91,1.76,6.13s.04,4.53.08,6.8c-.04.51-.12.98-.16,1.45-.08.47-.16.94-.2,1.45-.12,2.19-.2,4.38-.23,6.6.27.98.51,2.03,1.17,2.81.66.66,1.48.86,2.3.98,2.19-.51,4.1-1.8,5.78-3.52.66-.7,1.21-1.45,1.68-2.23.47-.74.98-1.48,1.52-2.23.16.2.23.39.2.59l-.08.47.08.59c-.35,2.19-1.05,4.22-2.89,5.74-1.68,1.21-3.48,2.15-5.47,2.15-1.56-.2-3.12-.74-4.22-1.95Z"/>
        <path class="cls-1" d="M230.19,334.88c1.29-1.91,2.7-3.95,2.97-6.29-.47-.43-.94-.78-1.41-1.13-.94-1.45-1.21-3.24-1.21-5.12.16-1.37.78-2.5,1.41-3.75.2-.12.35-.27.55-.47l.66-.43c.08-.59.08-1.17,0-1.76h-.35c-2.11.62-4.18,1.37-6.17,2.23s-4.14,1.41-6.37,1.6c-.94-.12-1.84-.2-2.58-.7,2.81-.2,5.47-.94,7.97-2.19,2.46-1.25,5-2.34,7.54-3.32.12-.35.2-.74.16-1.13l-.04-.39c-.04-2.07.16-3.94-1.05-5.31-.47-.47-.98-.9-1.52-1.33.16-.2.39-.27.66-.23.66.08,1.25.35,1.76.86,1.41,1.56,1.64,3.63,1.68,5.7-.16.31-.2.66-.12,1.05l.31.2c1.21-.43,2.5-.66,3.75-.86l-.43-1.21c.66.04,1.17.23,1.52.51l.23.31c1.13.31,2.27.62,3.36,1.09.2.31.35.66.47,1.05l-.27.35c-.47.31-1.02.43-1.64.35l-.43-.04-.39.12c-.66-.12-1.33-.2-1.99-.16-1.56.12-2.97.47-4.41.9-.31.74-.43,1.6-.31,2.58.2.82.23,1.68.12,2.5.08.43.12.82.12,1.25v3.59c0,.62.04,1.17.16,1.64.08.51.12,1.02.12,1.52l-.12.74c-.43,1.88-.86,3.48-2.23,4.77l-.27.23-.62.62c-.47.12-.94.27-1.41.39l-.16-.35ZM232.89,323.63l.27-4.34-.47-.39c-.82,1.09-1.05,2.3-1.05,3.75.16.98.43,1.99.94,2.66.16-.51.27-1.09.31-1.68ZM243.16,311.17l-.51-.27c-.74-1.13-1.41-2.27-1.91-3.4.74.04,1.37.27,1.84.7.27.35.55.7.82,1.05.27.35.43.78.55,1.21-.04.2-.12.43-.31.62l-.47.08ZM245.97,309.3l-.9-.66c-.27-.59-.59-1.17-.94-1.72-.39-.51-.74-1.05-1.05-1.64l.7-.12c.66.12,1.29.43,1.8.94.74.82,1.21,1.72,1.05,2.97l-.66.23Z"/>
        <path class="cls-1" d="M235.07,375.55c-1.76-3.24-3.67-6.41-5.9-9.38-.98-.98-1.99-1.88-3.05-2.77-.43-.39-.86-.74-1.29-1.09l-.04-.55c.16-.82.55-1.52,1.21-2.11.62-.59,1.21-1.21,1.72-1.88.16-.2.31-.39.51-.59.39-.39.74-.82,1.09-1.25.31-.43.62-.9.98-1.33,1.88-2.7,3.4-5.78,3.67-9.02-.2-.35-.39-.66-.55-1.02-.16-.31-.35-.62-.59-.98l.31.08c1.25.27,1.95.66,2.58,1.41.35.35.62.7.82,1.09.2.74.51,1.48.39,2.38-.74,2.03-2.15,3.75-3.67,5.47l-.35.47c-1.05,1.25-2.15,2.42-3.24,3.55-1.09,1.13-2.15,2.27-3.2,3.4.35.59.78,1.02,1.29,1.37.74.47,1.45,1.02,2.03,1.68.35.43.78.86,1.21,1.29l1.21,1.21c1.05,1.37,2.11,2.62,3.09,3.83s1.64,2.54,1.95,3.98l-.16.62c-.35.35-.82.51-1.37.47-.23-.04-.47-.16-.66-.35Z"/>
      </g>
      <g>
        <path class="cls-2" d="M152.04,532.02c-.03.18-.05.35-.05.52,0,.17-.01.34-.01.52,0,.21,0,.4-.01.59,0,.19-.03.39-.06.59-.01.03-.02.07-.02.13.01.15.04.29.08.43.04.14.04.27.01.38-.03.07-.04.15-.02.22s0,.15-.02.22l-.04.09s-.03.06-.04.09c-.07.01-.14.03-.21.03s-.14.01-.21.01c-.03.01-.07.04-.12.08-.05.04-.1.07-.14.1-.06-.03-.11-.06-.14-.09s-.08-.05-.12-.07c-.03,0-.07,0-.11-.01-.04,0-.08,0-.11.01-.1.04-.24.05-.41.03-.17-.02-.31-.03-.43-.03-.15,0-.28.02-.41.05-.12.04-.25.08-.38.14-.1.06-.21.09-.32.1-.11,0-.22.03-.34.08-.07.1-.1.2-.09.29.03.12.05.25.08.39.02.14,0,.28-.06.43,0,.06,0,.1.02.11.06.15.09.29.09.44s-.01.3-.04.46c-.01.15-.02.29-.02.43s-.01.29-.04.45c-.03.16-.02.31.02.44.01.09.02.18.02.26v.24c-.01.1-.02.1-.02,0v.07s0,.03-.01.03c0,0-.01.02-.01.03.01.25.02.44.01.56s-.02.23-.03.33c-.01.1-.04.24-.09.43v.11c.06.23.09.47.09.71s0,.48-.02.71c0,.16,0,.32.01.48,0,.16.04.33.1.51-.01.09-.04.19-.07.3-.03.11-.07.22-.11.32-.02.06-.04.11-.08.15s-.09.1-.17.15c-.35-.03-.68,0-.99.09-.16.06-.33.04-.51-.07l-.04-.04c-.22-.13-.43-.15-.64-.07-.09.04-.18.06-.26.04s-.17-.02-.24-.02c-.1,0-.19.04-.26.11s-.17.08-.29.02c-.02-.12,0-.23.03-.33.04-.1.06-.22.08-.35-.01-.1-.04-.21-.08-.33-.04-.12-.07-.23-.1-.35.03-.07.05-.14.07-.21.01-.07.02-.13.02-.19.01-.07.02-.15.01-.23,0-.08-.01-.16-.01-.23.01-.23.02-.46.01-.67s-.03-.43-.05-.65c-.03-.18-.05-.35-.06-.52,0-.17-.02-.35-.03-.54.04-.06.08-.12.12-.18s.08-.12.14-.18l.02-.18v-.22c-.01-.21-.01-.42,0-.65s.04-.44.09-.65c-.01-.16-.04-.32-.07-.47-.03-.15-.08-.3-.15-.45.03-.07.06-.15.1-.22.04-.07.06-.14.08-.2-.01-.12-.01-.22.01-.31.02-.09.01-.18-.03-.29-.01-.04-.05-.08-.11-.11-.1,0-.21,0-.31-.02-.1-.01-.21-.02-.31-.02s-.2-.01-.3-.04c-.1-.03-.19-.03-.3,0-.09.04-.17.05-.25.01-.08-.04-.17-.05-.25-.03h-.57l-.55-.09s-.07-.02-.11-.07c-.04-.04-.07-.09-.07-.13v-.15c.03-.09.06-.18.08-.28.02-.09.02-.19-.01-.3-.01-.01-.02-.04-.01-.08,0-.04.01-.06.01-.08.06-.26.09-.57.09-.92s-.02-.66-.04-.92v-.26c0-.09.01-.17.04-.24.07-.07.15-.11.22-.12s.15-.02.22-.03c.07-.03.14-.06.2-.1.06-.04.12-.06.2-.08.34-.12.65-.12.95,0l.15.04c.13-.06.27-.08.42-.08.15,0,.3-.03.46-.1.03,0,.08,0,.14.01.07,0,.14.01.21.01.13-.06.27-.12.41-.18.14-.06.27-.15.41-.26.23-.03.47-.04.69-.02.23.01.44-.01.65-.09.1.01.19.04.27.08.08.04.15.07.21.1.1,0,.18-.03.24-.1.06-.07.15-.11.26-.12.12-.03.29-.02.51.02.09.02.18.06.27.12.1.07.19.09.3.08.07-.04.14-.09.19-.13s.11-.09.19-.13c.09,0,.18.02.29.05.1.04.2.05.29.03.1-.01.2-.03.3-.05.1-.02.22-.03.36-.03.06.01.12.03.18.05.06.02.12.05.18.08.09-.03.18-.05.28-.07.1-.01.19-.03.3-.04.03.04.06.09.09.13s.05.08.07.11Z"/>
        <path class="cls-2" d="M164.47,543.72c.04.1.06.2.04.29s-.04.18-.09.26c-.01.01-.04.03-.09.06-.04.02-.08.05-.11.08-.06.02-.11.02-.15.02s-.1.01-.15.04c-.22.04-.35.16-.4.35-.01.03-.04.07-.09.11-.1.01-.18.03-.22.05-.04.02-.13.07-.26.14-.1,0-.21.01-.31.04-.1.03-.2.09-.29.18-.03,0-.05,0-.07.01-.01,0-.04.01-.07.01-.06.03-.12.02-.2-.03-.07-.05-.11-.11-.11-.19v-.13c-.06-.03-.13-.03-.21,0-.08.03-.14,0-.19-.09v-.33s-.08-.05-.12-.08c-.04-.02-.08-.04-.12-.05-.06-.12-.12-.24-.2-.37-.07-.13-.15-.25-.22-.35-.06-.04-.11-.06-.15-.04s-.08.04-.11.07-.05.06-.07.1c-.01.04-.04.07-.07.1s-.05.07-.07.11-.04.08-.07.11c-.19.09-.38.17-.57.23-.19.07-.37.12-.55.17-.1.07-.21.14-.31.2-.1.06-.2.12-.29.18-.09.01-.18.04-.26.07s-.17.05-.24.07c-.09-.04-.17-.05-.25-.03-.08.02-.18.05-.3.08-.13-.03-.27-.06-.42-.1-.15-.04-.3-.07-.46-.1-.04.01-.09.02-.13.02s-.08,0-.11.02c-.06-.03-.11-.06-.14-.09s-.08-.05-.14-.07c-.07-.03-.14-.03-.2,0-.06.03-.12.06-.2.09-.07-.03-.15-.05-.24-.06-.09,0-.18-.02-.26-.03-.07-.07-.14-.14-.19-.2-.05-.06-.08-.13-.1-.22-.03-.03-.06-.05-.09-.08-.03-.02-.05-.04-.07-.06-.06-.21-.12-.38-.2-.53-.21-.44-.34-.92-.42-1.45-.03-.03-.06-.06-.09-.1-.03-.04-.07-.08-.11-.12-.02-.13-.03-.26-.04-.39-.02-.12-.04-.26-.07-.41.03-.09.04-.17.04-.24-.03-.15-.06-.28-.09-.4.06-.18.12-.35.19-.53.07-.18.08-.36.06-.55.03-.06.07-.11.11-.17.04-.05.08-.1.11-.14.13-.15.23-.32.29-.51.04-.16.12-.3.23-.42.11-.12.23-.21.36-.29.16-.07.32-.15.47-.23.15-.08.3-.15.45-.21.03,0,.07,0,.12.01.05,0,.09,0,.12-.01.26-.04.49-.06.68-.04.09.01.18.01.26,0,.09-.01.17-.02.24-.02l.46-.09c.09.01.18.04.26.07.09.03.18.02.26-.02.03,0,.06,0,.08.01.02,0,.04.01.06.01.07.03.14.06.2.1.06.04.12.05.2.05.16.03.26,0,.31-.09-.01-.25-.03-.41-.05-.48-.02-.07-.07-.19-.14-.35-.04-.09-.07-.18-.09-.28-.02-.09-.03-.19-.04-.27-.02-.06-.03-.11-.03-.17,0-.05-.04-.11-.1-.17-.19-.06-.43-.1-.7-.13h-.13c-.13.06-.27.09-.42.09s-.3.01-.46.04c-.1.01-.21.04-.32.09-.11.04-.22.08-.34.11-.12.06-.23.03-.35-.09-.04-.13-.06-.27-.05-.41,0-.14.02-.28.03-.43-.03-.1-.07-.22-.11-.36-.04-.14-.07-.3-.07-.49l.02-.15s-.04-.06-.08-.09-.07-.05-.1-.07c-.04-.04-.05-.09-.02-.13,0-.04.02-.07.07-.07.12-.03.23-.05.33-.07s.21-.03.31-.04l.26-.26s.07-.02.11-.02c.34.06.58.08.74.07.15-.01.39-.07.72-.18.16.01.32.04.47.07.15.03.31.04.47.02.04.04.09.08.14.12.05.04.11.08.17.12.07-.03.15-.05.22-.08.07-.02.14-.04.2-.05.09.06.18.12.29.18.07.01.14,0,.19-.04.05-.04.11-.07.17-.07.13.01.24.08.32.19.08.11.17.2.27.28.09.06.17.13.25.22s.17.17.25.24c.03.04.06.09.09.13.03.04.05.09.07.13.07.06.14.11.2.14.06.04.11.08.15.14.07.06.15.1.23.13.08.03.14.08.19.15.03.07.06.15.09.23.03.08.08.15.15.21.04.15.09.3.13.45.04.15.05.31.02.47,0,.07,0,.14-.02.2.03.07.05.15.07.24.01.09.04.17.07.24v.11s0,.09-.01.14c0,.05,0,.09.01.12.03.09.07.15.11.2,0,.09-.04.17-.11.24-.03.01-.07.03-.11.04s-.08.04-.11.07c-.18.1-.2.24-.07.4.01.01.04.04.08.08.04.04.06.08.08.12.01.06.02.12.02.19s0,.14.02.21c-.06.28-.17.54-.33.79.04.21.11.4.21.59.1.19.18.39.25.59.07.04.13.09.18.13.04.04.1.08.15.11.01.04.03.07.03.09,0,.02.01.04.01.07,0,.15.02.29.06.44.04.15.08.29.14.42.06.13.12.26.18.37s.13.23.22.35c.07.06.13.14.18.24s.08.19.11.26ZM154.99,544.36s-.02.02-.02.04c.03-.03.04-.04.02-.04ZM159.66,540.75c-.09-.22-.2-.37-.33-.44-.16-.07-.26-.17-.31-.29-.01-.06-.04-.09-.09-.11l-.13-.04c-.06,0-.13,0-.21.01-.08,0-.16.02-.23.03-.09,0-.17-.01-.25-.04-.08-.03-.16-.05-.23-.07-.13,0-.26.04-.37.11-.06.04-.11.08-.15.12-.04.04-.09.08-.13.14l-.29.53c.03.09.07.17.11.23.04.07.04.16,0,.28.03.13.06.27.1.41s.09.27.17.41c.03.03.05.04.07.04.16.03.32.04.48.04s.32,0,.46-.02c.06,0,.1,0,.13-.02.16-.09.36-.17.59-.24.09-.01.17-.08.24-.2.06-.13.12-.28.18-.43.06-.15.12-.3.2-.45Z"/>
        <path class="cls-2" d="M175.08,543.32c-.16.25-.37.42-.62.51-.16.06-.32.13-.46.22-.15.09-.29.18-.44.29-.03.06-.09.1-.18.11-.04-.01-.1-.03-.15-.04-.06-.01-.12-.03-.2-.04l-.37-.07c-.1-.07-.19-.15-.26-.23-.07-.08-.15-.17-.22-.25-.15-.18-.25-.29-.31-.33s-.19-.12-.4-.22c-.07-.16-.14-.33-.2-.5-.06-.17-.08-.26-.07-.27.06-.03.06-.09.01-.19-.05-.09-.09-.15-.12-.17-.09-.06-.14-.09-.15-.09-.09-.01-.18-.02-.29-.02h-.31c-.06-.04-.12-.08-.18-.11s-.12-.06-.2-.09c-.1.01-.18.06-.22.14-.04.08-.08.16-.11.23-.02.04-.02.11-.02.2,0,.1,0,.21.01.33,0,.12,0,.24-.03.35-.03.1-.05.21-.06.31s-.01.21-.01.33c-.01.06-.03.12-.04.2s-.04.15-.07.22c-.06.1-.1.21-.12.33s-.07.22-.14.31c-.35.09-.58.14-.67.15s-.25.01-.47,0c-.03.01-.06.03-.09.04s-.07.03-.11.04c-.1-.04-.21-.1-.33-.17-.12-.07-.23-.13-.35-.19-.1-.06-.15-.14-.15-.24-.01-.25-.05-.5-.1-.74-.05-.24-.07-.49-.05-.74-.04-.18-.06-.36-.06-.55,0-.19,0-.38-.03-.57-.01-.06-.02-.11-.02-.17v-.17c.03-.12.05-.25.07-.4-.01-.03-.03-.07-.05-.12-.02-.05-.05-.09-.08-.12-.04-.15-.06-.28-.04-.4s.03-.23.03-.34c0-.11,0-.23-.03-.36,0-.07,0-.14.01-.19,0-.05.02-.11.03-.17.07-.18.07-.36-.02-.55-.03-.12-.07-.23-.11-.35s-.09-.23-.13-.35v-.2c0-.07,0-.15.02-.22,0-.16,0-.32.01-.47s0-.3-.01-.45v-.13c.03-.1.05-.21.05-.32,0-.11.02-.22.03-.32.04-.12.07-.24.08-.37s.02-.25.03-.35c0-.25.02-.48.07-.7.03-.06.04-.11.04-.17v-.14c0-.07-.01-.14-.03-.2-.02-.06-.03-.12-.03-.18,0-.07.01-.14.03-.21.02-.07.03-.13.03-.19v-.75c.01-.15.02-.29.02-.44s0-.3.02-.46c-.01-.01-.03-.04-.04-.07-.01-.03-.04-.07-.07-.11-.03-.09,0-.13.07-.13.29-.12.58-.25.86-.4.03,0,.05,0,.07-.01.01,0,.03-.01.04-.01.13-.03.26-.06.38-.08.12-.02.24-.07.34-.14.03-.04.1-.07.2-.07.16,0,.3-.03.42-.09.1-.03.19-.03.26-.01.07.02.15.05.22.08v.18c0,.07,0,.12.02.13,0,.03.01.04.04.04.22.18.33.42.33.75,0,.06,0,.12.01.18,0,.06.02.12.03.2v.18c-.02.13-.04.26-.07.37s-.05.23-.07.35c.03.15.06.3.08.45s0,.3-.06.45v.2c.03.1.04.21.02.31s-.02.21-.02.33v.24c.04.15.06.29.03.44-.02.15-.05.29-.08.42.01.07.03.14.03.21,0,.07.02.14.03.21-.01.07-.03.15-.04.23-.01.08-.03.16-.04.23,0,.1,0,.2.01.3,0,.09.02.2.03.32-.01.07-.03.16-.04.25-.01.1-.04.19-.07.28,0,.04.03.08.09.11.01,0,.03,0,.04-.02.06,0,.1-.02.11-.07.12-.13.26-.26.42-.37.07-.04.14-.1.2-.15s.13-.11.22-.15c.04-.01.11-.07.2-.15.12-.09.23-.18.35-.26.12-.09.24-.15.37-.2.13-.16.23-.3.29-.42.07-.03.14-.06.2-.1.06-.04.1-.06.13-.08.04-.04.08-.09.11-.13l.09-.26c.03-.09.07-.18.11-.26.1-.09.2-.18.3-.26.1-.09.19-.18.3-.29.09-.01.17,0,.24.03s.15.07.24.1c.15.24.32.45.52.64.2.19.4.37.6.55.07.01.13.09.18.22.04.13.04.24,0,.33-.04.01-.09.04-.14.09-.05.04-.11.08-.19.11-.1.21-.22.41-.34.62-.12.21-.25.42-.36.64-.04.09-.09.17-.13.25-.04.08-.1.15-.18.21-.06.03-.1.07-.11.11-.02.04-.04.1-.07.15-.06.15-.12.27-.2.37-.07.1-.16.21-.26.31-.04.03-.09.07-.13.13s-.08.11-.11.15c-.02.02-.02.04-.02.07.01.15.07.26.15.34.09.08.14.18.15.3.07.03.14.07.21.11.07.04.13.08.19.11.13.18.28.35.44.52.16.17.31.33.46.5.15.15.28.3.4.47.12.17.21.35.29.54.03.06.05.12.05.18,0,.06,0,.12-.03.18Z"/>
        <path class="cls-2" d="M180.82,533.05c.04.1.06.21.04.32-.01.11-.04.22-.07.32-.01.09-.04.17-.09.25-.04.08-.08.16-.11.23-.06.09-.12.17-.19.24-.07.07-.13.15-.19.22-.04.01-.08.04-.11.08-.03.04-.07.07-.11.1-.1.07-.26.14-.48.21-.22.07-.4.1-.53.1-.07,0-.13-.01-.18-.04-.09,0-.18,0-.26-.01-.09,0-.17-.01-.24-.01-.04-.03-.09-.06-.14-.09-.05-.03-.09-.06-.12-.09-.07-.03-.15-.04-.23-.04h-.23c-.06-.04-.13-.08-.21-.12-.08-.04-.16-.07-.23-.1l-.13-.4c.01-.12.03-.25.04-.38.01-.14,0-.28-.04-.43-.04-.03-.04-.07,0-.11.04-.1.04-.21,0-.31-.04-.1-.04-.21,0-.31.01-.03.02-.07.02-.13-.04-.09-.04-.17,0-.25.04-.08.08-.15.11-.21-.02-.04-.02-.09-.02-.14v-.12s.03-.03.03-.05c0-.02.03-.04.06-.05.12-.03.22-.08.3-.17.08-.08.17-.14.27-.19.1-.09.22-.16.34-.22.12-.06.25-.12.36-.18h.31c.09,0,.18.01.26.04.04.01.1.02.15.02h.18c.21-.03.37.05.48.24.03.07.08.12.15.13.07.02.14.04.2.07.15.13.24.3.29.51.03.09.06.18.1.26.04.09.06.18.08.26.03.09.05.18.08.27.02.1.04.19.06.28ZM180.69,538.11c-.03.09-.04.19-.04.3v.34c.01.1.01.21,0,.32-.02.11-.02.22-.02.32l-.15.22c.07.07.12.15.13.24.01.09.02.18.02.29v.32c0,.11,0,.22-.02.34-.02.1-.04.21-.09.33s-.08.24-.11.37c0,.15,0,.32-.01.52,0,.2,0,.39.01.58.01.28,0,.56-.04.85-.04.29-.13.55-.26.8,0,.12.01.23.04.34s.06.22.09.34c0,.01,0,.03-.02.05-.02.02-.02.05-.02.08-.07.1-.16.19-.26.26-.01,0-.03,0-.04.02h-.09c-.16,0-.33.01-.49.03-.17.02-.36.01-.56-.03-.06-.03-.12-.07-.19-.11s-.14-.08-.21-.11c-.06,0-.13,0-.21-.01-.08,0-.16-.02-.23-.03-.12-.13-.23-.27-.35-.42-.04-.03-.1-.05-.15-.07s-.12-.04-.18-.07c-.1-.07-.14-.19-.11-.35.03-.16.07-.3.11-.42.04-.19.04-.37-.02-.55l-.09-.31c0-.12,0-.23-.02-.33-.02-.1-.02-.21,0-.31.01-.15.02-.29.01-.42s-.01-.27-.01-.42c.01-.21.02-.41.02-.6v-.58c0-.07,0-.12.02-.13.07-.12.11-.23.11-.34v-.34c-.01-.12-.01-.24.01-.36.02-.12.02-.24-.01-.34v-.38c0-.12,0-.25.02-.38.01-.07.03-.15.03-.23,0-.08,0-.17-.03-.27.13-.06.25-.1.34-.13.1-.03.19-.04.28-.04h.19c.07,0,.13,0,.19-.02.15-.03.27-.06.37-.09.07.01.14.04.19.08.05.04.11.07.17.1.1,0,.21-.02.31-.07.1-.01.19,0,.27.02s.14.1.19.22c.01.01.03.03.03.04,0,.01.02.03.03.04l.15.09c.1.02.19,0,.26-.05.07-.05.15-.08.22-.1.09,0,.14.04.15.11.04.1.07.26.09.46Z"/>
        <path class="cls-2" d="M191.44,541.56c0,.12,0,.24.01.36,0,.12,0,.25-.03.36-.03.07-.04.14-.02.2.03.07.03.15.01.23-.02.08-.03.16-.01.23.03.1.04.22.02.34-.02.12-.02.25,0,.36-.06.1-.15.15-.29.15-.15,0-.3,0-.47.02-.17.01-.33.05-.5.11-.09.03-.18.04-.29.04h-.31c-.09-.06-.15-.11-.2-.15-.18.06-.32,0-.44-.2-.06-.09-.11-.18-.14-.29s-.05-.21-.05-.33c.01-.12.01-.23,0-.35-.02-.12-.02-.24,0-.37.03-.22,0-.43-.09-.64l-.04-.13s-.02-.09-.02-.13c0-.16,0-.33-.02-.5-.01-.17-.04-.33-.09-.47-.01-.07-.03-.14-.03-.21,0-.07-.01-.13-.01-.19-.04-.18-.14-.31-.29-.42-.01-.12-.03-.22-.04-.32s-.04-.2-.07-.32c-.03-.03-.09-.07-.18-.13-.06-.04-.13-.08-.21-.11-.08-.03-.16-.07-.23-.11-.03-.03-.06-.07-.1-.12-.04-.05-.08-.1-.12-.14h-.13c-.06.01-.11.03-.15.03-.04,0-.1,0-.18-.01-.03-.01-.07-.02-.11-.01-.04,0-.08.01-.11.01-.07.1-.15.21-.22.33-.06.04-.11.08-.16.12-.05.04-.09.07-.12.1-.04.04-.07.09-.07.13l-.15.46c.03.09.03.17,0,.25-.03.08-.02.17.02.25.01.04.01.09,0,.13s-.03.08-.04.11c-.04.06-.05.1-.02.13.03.03.05.07.07.11.01.01.03.04.04.09v.51c0,.16-.03.32-.09.48.01.06.03.11.03.17,0,.05.02.11.03.19-.01.09-.03.19-.05.3-.02.11-.03.22-.01.34.01.07.02.15.01.24,0,.09-.03.18-.06.26-.01.04-.01.09,0,.13.04.18.04.33,0,.46s-.12.27-.24.42c-.01.01-.04.03-.09.04s-.08.03-.11.04c-.03.03-.06.05-.09.06-.03,0-.06.02-.09.03-.06,0-.12,0-.18-.01-.06,0-.11-.01-.15-.01-.06.01-.11.03-.14.05-.04.02-.09.05-.17.1-.19-.03-.39-.07-.58-.11-.2-.04-.39-.03-.58.04-.09-.01-.16-.05-.22-.11s-.11-.12-.15-.2c-.06-.09-.1-.19-.11-.3-.02-.11-.04-.22-.07-.32.03-.25.04-.42.04-.52s-.02-.31-.07-.65c.04-.23.07-.47.09-.71.01-.24.02-.48.02-.72v-.95c0-.32,0-.65.02-.97,0-.09,0-.18.02-.26.01-.09.03-.17.04-.24.03-.16.06-.31.09-.46.03-.15.07-.29.11-.42.03-.1.08-.19.15-.26.07-.07.12-.16.15-.26.03-.21.09-.39.19-.54.1-.15.19-.3.3-.45.07-.21.21-.29.4-.24.03,0,.04,0,.04-.02.04-.04.05-.1.03-.18-.02-.07,0-.14.06-.2.13-.12.29-.21.46-.27.18-.07.34-.13.48-.19.13,0,.22.02.26.04.19.06.37.06.55,0,.13-.03.25,0,.35.11.15.03.29.06.42.09.13.03.27.06.42.09.06-.01.12-.03.18-.03.06,0,.12-.02.18-.03.15.06.27.14.36.25.1.11.19.22.3.34.07.06.15.08.24.07.09-.01.18,0,.29.02.07.07.15.15.23.24s.17.17.25.24c.01.06.03.11.06.17.02.05.04.11.06.17.07.01.12.05.15.11s.05.11.07.15c.15.06.29.1.44.13.07.07.14.16.2.25.06.1.15.14.29.14.03.15.06.28.09.4.03.12.06.24.09.35.03.22.08.41.15.57.06.12.11.24.15.36.04.12.07.26.07.41.01.09.05.17.1.24.05.07.09.15.12.24-.02.06-.03.12-.03.18s-.01.12-.01.2c0,.06,0,.11.01.15s.02.1.03.18c0,.03,0,.07.01.12,0,.05,0,.09-.01.12-.03.1-.04.21-.02.31.01.1.02.2.02.29Z"/>
        <path class="cls-2" d="M203.06,538.79c.04.18.04.34-.02.48-.03.07-.05.15-.07.22-.01.07-.01.15,0,.22.01.01.02.03.01.05,0,.02-.01.05-.01.08-.06.12-.08.24-.08.37s.02.26.03.37l-.22.31v.29s-.07.06-.11.1c-.04.04-.1.08-.18.14-.03.1-.07.21-.12.33-.05.12-.09.23-.12.33v.22c-.06.06-.13.11-.22.15-.09.04-.16.11-.22.2-.06.04-.12.08-.18.11-.06.03-.12.07-.2.11-.03.01-.06.02-.1.01-.04,0-.07,0-.1.01-.22,0-.33.1-.33.31-.16.1-.32.21-.47.33-.15.12-.31.23-.47.35-.25.19-.57.32-.97.4-.13.01-.26.05-.37.1-.12.05-.24.09-.37.12-.03,0-.07,0-.11-.02-.04-.01-.08-.01-.11,0-.18.01-.36,0-.55-.04-.06-.01-.12-.01-.18,0s-.11.03-.15.04c-.1-.01-.21-.03-.31-.04s-.21-.03-.33-.04c-.13-.06-.25-.12-.36-.2s-.22-.14-.34-.2c-.09-.03-.17-.08-.24-.15-.07-.07-.13-.15-.18-.22-.01-.03-.03-.05-.05-.08-.02-.02-.05-.05-.08-.08-.04-.03-.09-.05-.13-.08-.04-.02-.09-.05-.13-.1-.23-.16-.44-.34-.63-.53-.18-.19-.32-.42-.41-.7-.07-.19-.16-.36-.26-.51-.03-.06-.06-.11-.1-.17-.04-.05-.07-.11-.1-.17.01-.03.04-.09.07-.18-.03-.04-.06-.09-.09-.13-.03-.04-.04-.09-.04-.15,0-.04,0-.09-.01-.14,0-.05,0-.11.01-.17.03-.1.04-.21.02-.31s-.01-.21,0-.31c.01-.09.01-.18-.01-.29-.02-.1-.01-.2.03-.29.03-.1.05-.2.07-.29.01-.09.04-.18.07-.26.03-.09.06-.17.09-.25.03-.08.06-.16.09-.23.03-.09.06-.18.09-.26.03-.09.07-.18.13-.29v-.11s0-.07.02-.09c.06-.12.1-.23.13-.33s.04-.21.02-.31c.06-.07.11-.13.15-.18s.08-.09.11-.15c.03-.07.06-.14.1-.21.04-.07.08-.13.12-.19.04-.12.11-.22.2-.31.06-.07.11-.14.15-.19.04-.05.08-.09.11-.12.04-.09.06-.17.04-.23-.01-.07-.02-.12-.02-.17.03-.07.05-.12.07-.13.04-.01.08-.04.12-.07.04-.03.08-.05.12-.07.12-.07.24-.15.37-.22.13-.07.26-.13.4-.18.13-.09.27-.15.41-.19.14-.04.28-.08.43-.12h.35c.12,0,.23,0,.33.02h.2c.16.06.33.09.5.09s.33,0,.49-.02c.07,0,.15,0,.23-.01.08,0,.16-.01.23-.01.07.06.14.11.19.14.05.04.11.08.16.14.04.01.09.04.13.07.04.03.1.05.15.07.21.01.39.08.56.2.17.12.33.23.47.35v.12c0,.05,0,.1.02.14,0,.07.04.14.13.2.04.01.1.02.15.02s.12.01.18.04c.03.06.07.12.12.2.05.07.1.15.14.22.06.06.12.12.18.18s.1.12.13.2c.03.03.05.07.08.11s.04.08.06.11l.13.13s.07.1.09.18c.03.1.07.21.13.31.06.1.1.21.13.33.01.04.04.09.08.13.04.04.08.1.12.15.03.13.05.27.08.42s.06.29.12.42ZM199.98,539.58c.01-.1,0-.19-.04-.28-.04-.08-.06-.17-.04-.25,0-.03-.02-.07-.07-.11-.01-.03-.02-.09-.02-.18.01-.03.02-.07.02-.12v-.1c-.1-.16-.2-.31-.29-.45-.09-.14-.18-.27-.29-.41,0-.03-.01-.05-.04-.05-.03,0-.06-.03-.09-.08-.25,0-.52-.07-.81-.2-.18-.09-.39-.1-.64-.02-.01,0-.03,0-.05.02s-.05.04-.08.07h-.11c-.23-.04-.39.04-.46.26-.03.06-.06.12-.1.19-.04.07-.06.14-.08.21-.01.06-.04.12-.09.19-.04.07-.08.13-.11.19-.06.07-.11.15-.15.24s-.1.17-.15.24c-.01.15-.05.29-.1.44s-.08.29-.1.42c.04.07.09.15.13.23.04.08.08.16.11.23.09.19.12.37.11.55,0,.03,0,.06.02.09l.04.09c.13.03.26.06.39.09.12.03.25.07.36.11.1.03.21.05.31.07s.21,0,.31-.04h.07c.12.03.23.03.34.01.11-.02.23-.05.36-.08.1-.07.21-.15.32-.24.11-.09.22-.16.34-.22.1-.21.23-.39.37-.55.15-.16.25-.34.31-.55Z"/>
        <path class="cls-2" d="M218.22,533.73c-.09.19-.21.35-.35.47s-.27.27-.37.43c-.12.03-.23.08-.34.15s-.21.15-.3.22c-.15.09-.28.09-.4,0-.06-.03-.11-.06-.14-.1-.04-.04-.08-.07-.14-.1-.12-.1-.27-.14-.46-.11-.01.01-.04,0-.07-.02v-.22s-.03-.04-.06-.07c-.02-.03-.05-.04-.08-.04-.29-.12-.57-.12-.84-.02-.09.01-.18.04-.26.07-.09.03-.18.06-.26.09-.06.09-.11.18-.17.26-.05.09-.11.17-.17.24.01.12.03.23.03.35,0,.12.02.23.03.35.07.09.14.18.21.28.07.1.13.19.19.3.13.1.27.2.42.3.15.1.29.2.42.32.09.06.18.11.28.14.1.04.18.09.25.17.07.07.14.14.21.19s.13.11.19.19c.04.01.09.04.13.07l.13.09c.25.16.44.38.57.66.07.12.15.24.23.37.08.13.16.26.23.37.1.09.17.19.21.31.04.12.08.24.12.35.01.01.02.04.02.09.03.18.08.34.14.51s.14.32.21.48c.04.19.07.38.08.56s0,.36-.03.54c0,.15-.02.29-.06.43-.04.14-.08.27-.14.38-.01.02-.02.03-.02.04,0,.02-.01.04-.04.07-.13.13-.24.28-.32.44-.08.16-.17.32-.27.48-.02.01-.02.03-.02.06s-.02.04-.04.05c-.15.1-.27.21-.36.33-.1.12-.2.23-.32.35-.06.06-.13.11-.22.15s-.17.09-.24.15l-.46.22c-.15.01-.3.04-.45.07-.15.03-.31.08-.47.15-.1.06-.22.1-.34.13-.12.03-.25.06-.36.09-.06.01-.12.03-.18.04-.06.01-.12.03-.18.04-.19-.15-.4-.22-.64-.22-.16,0-.3-.03-.42-.09-.18-.07-.34-.15-.51-.23-.16-.08-.31-.19-.44-.32-.09-.07-.18-.14-.26-.2-.09-.06-.17-.12-.24-.18-.06-.06-.13-.1-.21-.12-.08-.02-.16-.05-.23-.08-.1-.07-.16-.15-.18-.24.01-.12.06-.23.14-.33s.15-.21.21-.33c0-.09.02-.2.07-.33.13-.18.27-.36.42-.54.15-.18.29-.37.44-.56.06-.04.12-.09.2-.14s.15-.11.24-.17c.29.07.57.15.84.24s.54.17.81.24c.06-.01.1-.03.13-.06.03-.02.05-.04.07-.05.04-.01.08-.03.11-.04.03-.01.05-.03.07-.04h.4s.03-.06.06-.08c.02-.02.04-.05.05-.08.06-.15.12-.29.18-.42.06-.13.1-.28.11-.44-.03-.12-.06-.24-.1-.37-.04-.13-.11-.26-.21-.4-.06-.04-.12-.09-.2-.15-.07-.06-.15-.12-.22-.18-.25-.03-.5-.09-.76-.2-.26-.1-.51-.15-.76-.15-.1-.03-.18-.08-.24-.14-.06-.07-.12-.13-.2-.19-.1-.03-.21-.05-.33-.07s-.21-.07-.29-.18c-.23-.13-.43-.23-.59-.29-.07-.09-.14-.18-.21-.26s-.14-.17-.21-.24c-.06-.07-.11-.17-.17-.28-.05-.11-.11-.22-.19-.32-.06-.07-.11-.16-.15-.25-.04-.1-.09-.19-.13-.3-.04-.21-.09-.42-.13-.66.03-.16.06-.33.08-.5s.04-.34.05-.52l-.09-.22c.06-.03.1-.07.13-.13.03-.06.06-.12.09-.18.03-.09.07-.16.11-.22.04-.06.06-.14.04-.24,0-.28.07-.54.22-.77.03-.06.05-.11.08-.15s.04-.09.06-.13c.07-.04.14-.09.19-.14.05-.05.08-.08.1-.1.07-.07.1-.14.09-.21-.01-.07-.01-.13,0-.19.06-.09.12-.18.2-.26.07-.09.15-.18.24-.29.1-.07.21-.14.33-.19.12-.05.23-.13.33-.23.03-.04.07-.08.11-.1.04-.02.1-.04.15-.05.07-.04.15-.08.24-.11.09-.03.18-.07.26-.11.15-.03.3-.05.45-.07.15-.01.3-.03.45-.04.01,0,.03,0,.06-.01s.05,0,.08.01c.16.06.33.06.5,0,.17-.06.34-.08.52-.07.16,0,.32.02.47.07.15.04.3.08.45.11.16.12.32.22.48.32.16.1.34.17.53.23.06.06.11.12.17.19.05.07.11.14.17.21.06.06.12.11.18.15s.11.1.15.15c.12.22.23.44.34.65.11.21.22.42.32.63Z"/>
        <path class="cls-2" d="M229.11,541.19c-.06.19-.08.38-.06.56.02.18.02.37-.01.56-.01.1-.01.21,0,.31s0,.21-.02.33c-.01.09-.02.18,0,.27,0,.1,0,.19,0,.28-.01.06-.02.13-.02.22-.03.1-.05.2-.05.3,0,.1-.03.2-.06.32,0,.01,0,.03-.01.05,0,.02-.01.05-.01.08,0,.1-.06.15-.18.15-.02-.01-.05-.02-.11-.02-.1-.04-.19-.05-.26-.02-.07.03-.15.06-.22.09l-.13.13s-.09.1-.13.15c-.16.09-.31.11-.45.08-.14-.04-.28-.1-.43-.19-.09,0-.15,0-.2.02h-.07s-.04-.02-.07-.02c-.06-.04-.11-.09-.17-.13s-.11-.09-.17-.13c-.12-.12-.16-.23-.13-.35.01-.06.03-.11.06-.17.02-.05.03-.11.01-.17-.01-.07-.03-.15-.05-.22s-.03-.15-.03-.22.01-.15.03-.22.04-.15.05-.22c-.03-.12-.07-.23-.13-.35s-.1-.24-.13-.37c-.02-.12-.03-.24-.06-.36-.02-.12-.03-.25-.03-.36-.01-.13-.03-.26-.03-.38,0-.12-.01-.26-.01-.41-.03-.18-.1-.31-.22-.42-.1-.12-.19-.23-.26-.33-.07-.1-.14-.22-.2-.35-.07-.06-.17-.11-.29-.15-.01-.03-.03-.06-.04-.09-.02-.03-.04-.05-.07-.07-.02-.01-.02-.03-.02-.06s0-.04-.02-.05l-.13-.13c-.06-.03-.12-.03-.18,0-.06.03-.11.04-.15.04-.06.01-.11.02-.15.02s-.1,0-.18.02c-.06.03-.11.06-.14.1s-.09.07-.17.1c-.04.04-.1.08-.15.1s-.12.05-.18.08c-.06.13-.07.26-.02.37.03.15.05.3.05.46s.03.32.06.48c.01.15,0,.32-.04.51,0,.04,0,.09-.02.14-.01.05-.02.11-.02.17.01.23,0,.47-.04.69s-.1.46-.18.69c.01.15.03.29.04.43s.03.28.04.43v.46c0,.19-.1.3-.31.33h-.46c-.15.01-.29.03-.43.04-.14.01-.27.06-.39.13-.06.01-.11.04-.16.07-.05.03-.11.06-.19.09l-.15.15s-.06,0-.1.01c-.04,0-.07,0-.1-.01-.15-.07-.29-.13-.42-.18-.15-.19-.23-.4-.26-.62-.03-.22-.08-.43-.15-.62.01-.09.03-.17.05-.25.02-.08.02-.16-.01-.23-.02-.04-.02-.12-.02-.24,0-.04,0-.08.01-.12,0-.04,0-.07-.01-.1-.04-.28-.03-.52.04-.73.03-.13.02-.27-.02-.42-.06-.26-.08-.54-.07-.81.04-.23.04-.47-.02-.7-.04-.04-.04-.1,0-.18,0-.07,0-.15.01-.23,0-.08.02-.15.03-.21.01-.06.04-.11.09-.14.04-.04.08-.07.11-.1l.07-.4s0-.12-.07-.22c-.01-.03-.04-.03-.07-.01-.03.02-.06.04-.09.05l-.02-.02c0-.16,0-.31.01-.45,0-.14,0-.28-.01-.43-.02-.06-.02-.11,0-.15.01-.04.02-.1.02-.15,0-.04,0-.1-.02-.15-.02-.06-.02-.12-.02-.18v-.11s0-.09.02-.13c.01-.07.03-.15.04-.22.01-.07.04-.15.07-.24-.06-.12-.08-.24-.08-.37s0-.27-.03-.42c-.02-.04-.01-.1.01-.15s.04-.12.06-.2c-.06-.13-.08-.28-.07-.45.01-.17.01-.33,0-.5.03-.09.04-.17.02-.25-.02-.08-.02-.17-.02-.25.01-.15.01-.29,0-.42-.02-.13,0-.26.02-.4.01-.04.02-.08.01-.11s-.01-.06-.01-.09c-.03-.28-.02-.54.02-.77.01-.04.02-.1.02-.18v-.2c-.02-.06-.03-.11-.03-.15s0-.09.01-.15c.04-.09.06-.18.05-.28s.02-.19.08-.28c.01-.03.02-.05.02-.07l.04-.02s.02-.02.07-.02c.07-.03.14-.06.21-.08.07-.02.14-.04.21-.05.04.03.09.06.13.09s.1.06.15.09h.35s.06-.05.09-.07.05-.03.07-.04l.22-.15c.06-.03.12-.05.19-.05.07,0,.12.01.17.05.13.09.26.16.38.22s.25.1.39.11c.07.12.13.23.17.33.04.1.08.21.12.33.04.15.11.32.2.51,0,.07-.03.13-.08.18s-.08.11-.1.2c0,.03,0,.07.01.13,0,.06.02.12.03.2,0,.06,0,.12-.02.18-.02.06-.02.12,0,.2.03.24.04.47.02.7-.02.24-.04.46-.07.68v.31c0,.15.04.29.11.44.06.06.11.12.17.19.05.07.1.14.14.21.09.09.18.13.29.13.21,0,.41.02.63.05.21.04.42.04.63.01.04-.01.08-.02.11-.01.03,0,.07.01.11.01.04.03.1.05.17.07s.13.03.19.04c.16.03.23.12.2.29.03.01.05.03.07.04.03-.01.06-.02.09-.02s.05,0,.07-.02c.19-.07.36-.06.51.04.09.07.19.13.31.17.12.04.23.11.33.23.1.18.23.34.4.5.16.15.32.32.48.5.03.04.07.08.11.12.04.04.08.07.11.1.13.13.21.26.22.4.04.21.1.37.15.48.04.16.11.34.2.55v.22c.01.06.03.12.04.19.01.07.02.14.02.21.02.18.03.35.04.53.01.18.03.35.04.53,0,.01,0,.03.01.06,0,.02,0,.05-.01.08Z"/>
        <path class="cls-2" d="M234.78,533.05c.04.1.06.21.04.32-.01.11-.04.22-.07.32-.01.09-.04.17-.09.25-.04.08-.08.16-.11.23-.06.09-.12.17-.19.24s-.13.15-.19.22c-.04.01-.08.04-.11.08-.03.04-.07.07-.11.1-.1.07-.26.14-.48.21-.22.07-.4.1-.53.1-.07,0-.13-.01-.18-.04-.09,0-.18,0-.26-.01-.09,0-.17-.01-.24-.01-.04-.03-.09-.06-.14-.09-.05-.03-.09-.06-.12-.09-.07-.03-.15-.04-.23-.04h-.23c-.06-.04-.13-.08-.21-.12-.08-.04-.16-.07-.23-.1l-.13-.4c.01-.12.03-.25.04-.38s0-.28-.04-.43c-.04-.03-.04-.07,0-.11.04-.1.04-.21,0-.31-.04-.1-.04-.21,0-.31.01-.03.02-.07.02-.13-.04-.09-.04-.17,0-.25.04-.08.08-.15.11-.21-.01-.04-.02-.09-.02-.14v-.12s.03-.03.03-.05c0-.02.03-.04.05-.05.12-.03.22-.08.3-.17.08-.08.17-.14.28-.19.1-.09.22-.16.34-.22.12-.06.24-.12.36-.18h.31c.09,0,.18.01.26.04.04.01.09.02.15.02h.18c.21-.03.37.05.48.24.03.07.08.12.15.13.07.02.14.04.2.07.15.13.24.3.29.51.03.09.06.18.1.26.04.09.06.18.08.26.03.09.05.18.08.27.02.1.04.19.06.28ZM234.65,538.11c-.03.09-.04.19-.04.3v.34c.01.1.01.21,0,.32-.01.11-.02.22-.02.32l-.15.22c.07.07.12.15.13.24.01.09.02.18.02.29v.32c0,.11,0,.22-.02.34-.02.1-.04.21-.09.33-.04.12-.08.24-.11.37,0,.15,0,.32-.01.52,0,.2,0,.39.01.58.01.28,0,.56-.04.85-.04.29-.13.55-.26.8,0,.12.01.23.04.34s.06.22.09.34c0,.01,0,.03-.02.05-.01.02-.02.05-.02.08-.07.1-.16.19-.26.26-.02,0-.03,0-.04.02h-.09c-.16,0-.33.01-.49.03-.17.02-.36.01-.56-.03-.06-.03-.12-.07-.19-.11-.07-.04-.14-.08-.21-.11-.06,0-.13,0-.21-.01-.08,0-.16-.02-.23-.03-.12-.13-.24-.27-.35-.42-.04-.03-.1-.05-.15-.07s-.12-.04-.18-.07c-.1-.07-.14-.19-.11-.35.03-.16.07-.3.11-.42.04-.19.04-.37-.02-.55l-.09-.31c0-.12,0-.23-.02-.33-.02-.1-.02-.21,0-.31.01-.15.02-.29,0-.42,0-.13,0-.27,0-.42.01-.21.02-.41.02-.6v-.58c0-.07,0-.12.02-.13.07-.12.11-.23.11-.34v-.34c-.01-.12-.01-.24.01-.36.02-.12.02-.24-.01-.34v-.38c0-.12,0-.25.02-.38.01-.07.03-.15.03-.23,0-.08,0-.17-.03-.27.13-.06.25-.1.34-.13.1-.03.19-.04.28-.04h.19c.07,0,.13,0,.19-.02.15-.03.27-.06.37-.09.07.01.14.04.19.08.05.04.11.07.16.1.1,0,.21-.02.31-.07.1-.01.19,0,.28.02.08.03.14.1.19.22.01.01.03.03.03.04,0,.01.02.03.03.04l.15.09c.1.02.19,0,.26-.05.07-.05.15-.08.22-.1.09,0,.14.04.15.11.04.1.07.26.09.46Z"/>
        <path class="cls-2" d="M244.88,544.09c-.01.1-.04.19-.09.28-.04.08-.1.16-.15.23-.06.03-.11.04-.15.04h-.18c-.06,0-.11,0-.15-.02-.16-.03-.31-.02-.44.02-.12.01-.24.03-.37.06-.13.02-.26.04-.37.05-.06.01-.11.02-.15.01-.04,0-.1-.01-.18-.01-.04.01-.09.02-.12.01-.04,0-.08,0-.14.03-.04-.03-.09-.04-.14-.04s-.09,0-.12-.02c-.23.02-.39.02-.46.02s-.19-.02-.35-.07c-.1.03-.21.05-.32.07-.11.01-.22.04-.32.07-.06.01-.12.02-.18.02h-.18c-.1,0-.21.02-.33.07-.09-.03-.18-.05-.26-.07s-.18-.02-.29-.02c-.06,0-.12,0-.2.02-.07.01-.15.04-.22.07-.03-.03-.07-.05-.13-.06-.06,0-.12-.02-.2-.03-.06-.03-.12-.04-.19-.04s-.13,0-.21-.02c-.03,0-.07,0-.12.01-.05,0-.11.02-.17.03-.18.03-.29-.04-.33-.22,0-.06,0-.11-.01-.14,0-.04,0-.08,0-.12,0-.07-.02-.18-.04-.33,0-.04,0-.09-.02-.14-.02-.05-.03-.11-.04-.17-.01-.13-.03-.27-.04-.41-.02-.14-.03-.27-.04-.38v-.21c0-.07,0-.14-.02-.21.03-.07.06-.14.1-.2.04-.06.07-.12.1-.18.12-.19.23-.38.35-.58.12-.2.23-.38.35-.56.09-.13.19-.27.3-.41s.22-.28.32-.41c.31-.35.55-.75.73-1.19.09-.16.18-.32.26-.46.09-.15.2-.29.33-.44v-.04c-.03-.07-.07-.15-.12-.22-.05-.07-.11-.14-.16-.2-.15-.07-.3-.1-.46-.07-.21.03-.42.04-.65.02-.23-.01-.44-.01-.65,0h-.14c-.05,0-.09,0-.12-.02-.12-.06-.24-.09-.37-.1-.13,0-.26-.01-.37-.01-.15,0-.28-.07-.4-.2-.04-.07-.06-.15-.06-.22s0-.15-.01-.22c0-.06,0-.12.01-.19,0-.07,0-.13-.01-.19,0-.07,0-.14-.01-.21,0-.07-.01-.13-.01-.21.01-.04.03-.08.04-.12.01-.04.03-.08.04-.12.01-.07.02-.14,0-.21,0-.07,0-.13.01-.21.03-.07.04-.14.04-.2v-.18c0-.07,0-.15-.01-.23,0-.08.01-.17.05-.25.03-.01.05-.04.08-.07.02-.03.05-.05.1-.07.09-.04.18-.08.26-.12.09-.04.18-.08.26-.14.16.04.31.07.44.07.07,0,.15-.01.22-.03.07-.02.15-.04.22-.05.06.01.12.03.18.05.06.02.12.03.18.01.12-.03.22-.04.31-.04s.18.01.26.04c.12.02.24.02.36.02s.24,0,.34-.02c.1-.04.21-.04.31,0,.04,0,.09,0,.13.01.04,0,.08,0,.11-.01.16-.07.32-.11.46-.1.15,0,.29.01.44.01h.12c.05,0,.1,0,.14.02.06.03.12.06.19.1.07.04.13.07.19.1.07.01.15.03.24.03.09,0,.17.03.24.06.07.01.14.05.21.11.07.06.13.1.19.13h.24c.1.04.21.07.31.08.1,0,.21.01.33.01.19,0,.36.07.51.22.03.06.05.12.05.18s.02.12.03.18c-.02.09-.03.17-.04.25-.01.08-.03.17-.04.25v.44c0,.34-.08.69-.24,1.06-.02.06-.04.1-.08.13s-.07.07-.1.13l-.44.53c-.06.03-.1.07-.13.13s-.06.12-.09.2c-.03.15-.09.29-.18.42s-.18.26-.29.4c-.06.06-.11.12-.14.19-.04.07-.08.14-.14.21-.03.06-.06.11-.09.14-.03.04-.05.08-.07.14-.03.1-.07.2-.13.29-.06.09-.12.18-.18.29-.06.09-.11.18-.15.26s-.1.18-.18.26c-.06.09-.12.17-.19.25-.07.08-.14.17-.23.27.04.06.03.14-.04.23-.07.1-.1.17-.09.23.03.04.11.06.25.06.14,0,.23.02.28.08.22.03.43,0,.62-.09.28-.09.59-.12.92-.09.21.01.4.03.58.03.18,0,.37.02.56.03.02.03.03.05.03.07l.03.07c.03.1.05.21.08.33s.04.23.06.35c0,.02,0,.04-.01.08,0,.04,0,.07.01.1.1.19.15.38.14.58,0,.2,0,.38.01.56Z"/>
        <path class="cls-2" d="M256.01,536.7c.03.09.04.18.03.26s-.03.17-.05.24c-.03.1-.05.21-.05.32,0,.11-.01.22-.01.34,0,.15,0,.29-.01.43s-.01.28-.01.43v.33c0,.12-.02.24-.04.37-.06.24-.12.48-.2.73-.07.25-.13.51-.18.77-.02.03-.03.07-.03.12,0,.05-.03.11-.05.17-.13.28-.26.59-.4.92-.06.07-.12.15-.19.24-.07.09-.13.17-.21.24-.06.04-.12.08-.19.11-.07.03-.13.06-.19.09-.03,0-.05.03-.07.09.03.03.05.07.08.11s.04.08.06.11c-.12.18-.29.34-.53.51-.06.01-.13.03-.21.05-.08.02-.16.04-.25.06-.15.09-.32.21-.51.35-.02.03-.04.07-.07.12-.03.05-.06.09-.09.12-.1.06-.2.08-.3.07-.1-.01-.2-.03-.32-.04-.04.02-.08.03-.12.06-.04.02-.08.05-.12.08-.03.01-.06.04-.1.08s-.07.06-.1.08c-.18.07-.35.1-.53.07s-.35-.02-.53.02c-.07-.04-.15-.08-.23-.11-.08-.03-.16-.06-.23-.09,0-.03,0-.06.01-.09s.02-.07.03-.11c-.03-.1-.1-.16-.2-.18-.1-.03-.2-.06-.3-.09s-.19-.03-.3,0c-.1,0-.15-.07-.15-.22-.03-.13-.08-.2-.15-.2h-.09c-.1.04-.2.05-.3.01-.1-.04-.19-.09-.28-.17-.06-.06-.09-.14-.1-.24,0-.1-.04-.21-.1-.31-.04-.07-.11-.14-.21-.19-.1-.05-.18-.11-.25-.17-.09-.22-.18-.43-.26-.63s-.17-.39-.24-.58c-.04-.09-.06-.17-.05-.23,0-.07.01-.15.01-.25l-.07-.11-.04-.09c-.1-.29-.17-.59-.2-.88-.03-.29,0-.59.09-.9-.01-.04-.03-.09-.05-.13s-.05-.08-.08-.11c-.03-.07-.03-.15.01-.22.04-.07.06-.14.06-.2-.03-.21-.02-.37.02-.51.03-.07.04-.15.02-.22-.02-.07-.02-.14,0-.2.04-.18.07-.35.09-.52.01-.17.03-.33.04-.5.01-.32.06-.64.13-.95.03-.12.07-.22.13-.31.06-.09.12-.18.18-.26.03-.03.07-.05.11-.07.04-.01.09-.03.13-.04.09-.01.18-.03.27-.04.09-.01.21-.03.34-.04.07.01.16.03.25.04s.19.02.3.02c.1.01.21.03.31.03.1,0,.21.02.33.03.02.04.03.08.04.11.01.03.03.06.04.09,0,.1,0,.2-.01.3,0,.09-.01.19-.01.3.01.04.03.08.05.12.02.04.04.08.06.14-.01.06-.03.12-.06.2-.02.07-.05.15-.08.22.04.23.07.48.07.74s.01.51.04.76c.03.16.05.32.07.47.01.15.04.31.09.47-.01.1,0,.21.02.31s.06.21.09.31c.04.1.08.21.1.31s.05.21.08.33c.07.23.18.45.33.64.09.09.15.15.2.18.03.01.06.02.1.02s.07,0,.1.02c.1,0,.18-.03.24-.09s.12-.09.2-.11c.16-.07.32-.13.46-.18.07.02.15.02.22.02h.15l.35-.22c.07-.12.12-.25.15-.4s.09-.27.2-.37c.07-.12.14-.23.2-.35s.13-.21.22-.29c.03-.21.05-.4.07-.57.01-.18.05-.35.11-.53.01-.04.02-.09.01-.14,0-.05-.01-.1-.01-.14-.01-.09-.03-.17-.03-.25,0-.08-.01-.14-.01-.17.01-.16.02-.31.02-.44s0-.26.02-.37.02-.24.02-.36,0-.24.02-.34c.03-.23.13-.4.31-.48.06-.03.11-.06.15-.08.04-.02.1-.04.15-.06.06-.01.12-.02.18-.02s.13,0,.22-.02c.07.01.15.04.23.07s.17.06.25.09c.09.01.17.01.25,0s.17-.04.25-.07c.06.02.11.03.15.04.04.02.09.04.15.07.02.01.03.03.04.05.01.02.02.05.02.08.01.07.03.15.04.24.01.09.02.18.02.26.01.18.03.35.03.53,0,.18.03.35.08.53Z"/>
        <path class="cls-2" d="M266.64,543.32c-.16.25-.37.42-.62.51-.16.06-.31.13-.46.22-.15.09-.29.18-.44.29-.03.06-.09.1-.18.11-.04-.01-.09-.03-.15-.04-.06-.01-.12-.03-.2-.04l-.37-.07c-.1-.07-.19-.15-.26-.23-.07-.08-.15-.17-.22-.25-.15-.18-.25-.29-.31-.33s-.19-.12-.4-.22c-.07-.16-.14-.33-.2-.5-.06-.17-.08-.26-.07-.27.06-.03.06-.09.01-.19-.05-.09-.09-.15-.12-.17-.09-.06-.14-.09-.15-.09-.09-.01-.18-.02-.29-.02h-.31c-.06-.04-.12-.08-.18-.11s-.12-.06-.2-.09c-.1.01-.18.06-.22.14-.04.08-.08.16-.11.23-.01.04-.02.11-.02.2,0,.1,0,.21.01.33,0,.12,0,.24-.03.35-.03.1-.05.21-.05.31,0,.1-.01.21-.01.33-.01.06-.03.12-.04.2s-.04.15-.07.22c-.06.1-.1.21-.12.33-.02.12-.07.22-.14.31-.35.09-.58.14-.67.15s-.25.01-.47,0l-.09.04s-.07.03-.11.04c-.1-.04-.21-.1-.33-.17-.12-.07-.24-.13-.35-.19-.1-.06-.15-.14-.15-.24-.01-.25-.05-.5-.1-.74-.05-.24-.07-.49-.05-.74-.04-.18-.06-.36-.06-.55,0-.19,0-.38-.03-.57-.01-.06-.02-.11-.02-.17v-.17c.03-.12.05-.25.07-.4-.01-.03-.03-.07-.05-.12-.02-.05-.05-.09-.08-.12-.04-.15-.06-.28-.04-.4s.03-.23.03-.34c0-.11,0-.23-.03-.36,0-.07,0-.14.01-.19,0-.05.02-.11.03-.17.07-.18.07-.36-.02-.55-.03-.12-.07-.23-.11-.35s-.09-.23-.13-.35v-.2c0-.07,0-.15.02-.22,0-.16,0-.32,0-.47,0-.15,0-.3,0-.45v-.13c.03-.1.05-.21.05-.32,0-.11.02-.22.03-.32.04-.12.07-.24.08-.37s.02-.25.03-.35c0-.25.02-.48.07-.7.03-.06.04-.11.04-.17v-.14c0-.07,0-.14-.03-.2-.02-.06-.03-.12-.03-.18,0-.07.01-.14.03-.21.02-.07.03-.13.03-.19v-.75c.02-.15.02-.29.02-.44s0-.3.02-.46c-.02-.01-.03-.04-.04-.07-.01-.03-.04-.07-.07-.11-.03-.09,0-.13.07-.13.29-.12.58-.25.86-.4.03,0,.05,0,.07-.01.01,0,.03-.01.04-.01.13-.03.26-.06.38-.08.12-.02.24-.07.34-.14.03-.04.09-.07.2-.07.16,0,.3-.03.42-.09.1-.03.19-.03.26-.01.07.02.15.05.22.08v.18c0,.07,0,.12.02.13,0,.03.01.04.04.04.22.18.33.42.33.75,0,.06,0,.12.01.18s.02.12.03.2v.18c-.01.13-.04.26-.07.37s-.05.23-.07.35c.03.15.06.3.08.45s0,.3-.05.45v.2c.03.1.04.21.02.31s-.02.21-.02.33v.24c.04.15.05.29.03.44-.02.15-.05.29-.08.42.02.07.03.14.03.21,0,.07.02.14.03.21-.01.07-.03.15-.04.23-.01.08-.03.16-.04.23,0,.1,0,.2.01.3,0,.09.02.2.03.32-.01.07-.03.16-.04.25-.01.1-.04.19-.07.28,0,.04.03.08.09.11.02,0,.03,0,.04-.02.06,0,.09-.02.11-.07.12-.13.26-.26.42-.37.07-.04.14-.1.2-.15s.13-.11.22-.15c.04-.01.11-.07.2-.15.12-.09.23-.18.35-.26.12-.09.24-.15.37-.2.13-.16.23-.3.29-.42.07-.03.14-.06.2-.1.06-.04.1-.06.13-.08.04-.04.08-.09.11-.13l.09-.26c.03-.09.07-.18.11-.26.1-.09.2-.18.3-.26.09-.09.19-.18.3-.29.09-.01.17,0,.24.03.07.04.15.07.24.1.15.24.32.45.52.64.2.19.4.37.61.55.07.01.13.09.18.22.04.13.04.24,0,.33-.04.01-.09.04-.14.09-.05.04-.11.08-.19.11-.1.21-.22.41-.34.62-.12.21-.25.42-.36.64-.04.09-.09.17-.13.25-.04.08-.1.15-.18.21-.06.03-.1.07-.11.11-.01.04-.04.1-.07.15-.06.15-.12.27-.2.37-.07.1-.16.21-.26.31-.04.03-.09.07-.13.13s-.08.11-.11.15c-.01.02-.02.04-.02.07.01.15.07.26.15.34.09.08.14.18.15.3.07.03.14.07.21.11.07.04.13.08.19.11.13.18.28.35.44.52.16.17.31.33.46.5.15.15.28.3.4.47.12.17.21.35.29.54.03.06.05.12.05.18,0,.06,0,.12-.03.18Z"/>
        <path class="cls-2" d="M277.79,536.7c.03.09.04.18.03.26,0,.09-.03.17-.05.24-.03.1-.05.21-.05.32,0,.11-.01.22-.01.34,0,.15,0,.29-.01.43,0,.14-.01.28-.01.43v.33c0,.12-.01.24-.04.37-.06.24-.12.48-.2.73-.07.25-.13.51-.18.77-.01.03-.03.07-.03.12,0,.05-.03.11-.05.17-.13.28-.26.59-.4.92-.06.07-.12.15-.19.24s-.14.17-.21.24c-.06.04-.12.08-.19.11-.07.03-.13.06-.19.09-.03,0-.05.03-.07.09.03.03.06.07.08.11.02.04.04.08.05.11-.12.18-.29.34-.53.51-.06.01-.13.03-.21.05-.08.02-.17.04-.25.06-.15.09-.32.21-.51.35-.02.03-.04.07-.07.12-.03.05-.06.09-.09.12-.1.06-.2.08-.3.07-.1-.01-.2-.03-.32-.04-.04.02-.08.03-.12.06-.04.02-.08.05-.12.08-.03.01-.06.04-.1.08-.04.04-.07.06-.1.08-.18.07-.35.1-.53.07s-.35-.02-.53.02c-.07-.04-.15-.08-.23-.11s-.16-.06-.23-.09c0-.03,0-.06.01-.09,0-.03.02-.07.03-.11-.03-.1-.1-.16-.2-.18-.1-.03-.2-.06-.3-.09s-.19-.03-.3,0c-.1,0-.15-.07-.15-.22-.03-.13-.08-.2-.15-.2h-.09c-.1.04-.2.05-.3.01-.1-.04-.19-.09-.28-.17-.06-.06-.09-.14-.1-.24,0-.1-.04-.21-.1-.31-.04-.07-.11-.14-.21-.19-.1-.05-.18-.11-.25-.17-.09-.22-.18-.43-.26-.63s-.17-.39-.24-.58c-.04-.09-.06-.17-.05-.23,0-.07.01-.15.01-.25l-.07-.11-.04-.09c-.1-.29-.17-.59-.2-.88-.03-.29,0-.59.09-.9-.01-.04-.03-.09-.06-.13-.02-.04-.05-.08-.08-.11-.03-.07-.03-.15.01-.22s.06-.14.06-.2c-.03-.21-.02-.37.02-.51.03-.07.04-.15.02-.22s-.01-.14,0-.2c.04-.18.07-.35.09-.52.01-.17.03-.33.04-.5.01-.32.06-.64.13-.95.03-.12.07-.22.13-.31s.12-.18.18-.26c.03-.03.07-.05.11-.07.04-.01.09-.03.13-.04.09-.01.18-.03.28-.04.09-.01.21-.03.34-.04.07.01.16.03.25.04.09.01.19.02.3.02.1.01.21.03.31.03.1,0,.21.02.33.03.01.04.03.08.04.11.01.03.03.06.04.09,0,.1,0,.2-.01.3,0,.09-.01.19-.01.3.01.04.03.08.05.12.02.04.04.08.06.14-.02.06-.03.12-.06.2s-.05.15-.08.22c.04.23.07.48.07.74s.01.51.04.76c.03.16.05.32.07.47.01.15.04.31.09.47-.01.1,0,.21.02.31s.06.21.09.31c.04.1.08.21.1.31.02.1.05.21.08.33.07.23.18.45.33.64.09.09.15.15.2.18.03.01.06.02.1.02s.07,0,.1.02c.1,0,.18-.03.24-.09s.12-.09.2-.11c.16-.07.31-.13.46-.18.07.02.15.02.22.02h.15l.35-.22c.07-.12.12-.25.15-.4s.09-.27.2-.37c.07-.12.14-.23.2-.35s.13-.21.22-.29c.03-.21.05-.4.07-.57s.05-.35.11-.53c.02-.04.02-.09.01-.14,0-.05-.01-.1-.01-.14-.01-.09-.03-.17-.03-.25,0-.08-.01-.14-.01-.17.01-.16.02-.31.02-.44s0-.26.02-.37c.02-.12.02-.24.02-.36s0-.24.02-.34c.03-.23.13-.4.31-.48.06-.03.11-.06.15-.08.04-.02.09-.04.15-.06.06-.01.12-.02.18-.02s.13,0,.22-.02c.07.01.15.04.23.07.08.03.17.06.25.09.09.01.17.01.25,0,.08-.01.17-.04.25-.07.06.02.11.03.15.04.04.02.09.04.15.07.01.01.03.03.04.05.01.02.02.05.02.08.02.07.03.15.04.24.01.09.02.18.02.26.01.18.03.35.03.53s.03.35.08.53Z"/>
        <path class="cls-2" d="M287.89,544.09c-.01.1-.04.19-.09.28-.04.08-.1.16-.15.23-.06.03-.11.04-.15.04h-.18c-.06,0-.11,0-.15-.02-.16-.03-.31-.02-.44.02-.12.01-.24.03-.37.06-.13.02-.26.04-.37.05-.06.01-.11.02-.15.01-.04,0-.1-.01-.18-.01-.04.01-.09.02-.12.01-.04,0-.08,0-.14.03-.04-.03-.09-.04-.14-.04s-.09,0-.12-.02c-.23.02-.39.02-.46.02s-.19-.02-.35-.07c-.1.03-.21.05-.32.07-.11.01-.22.04-.32.07-.06.01-.12.02-.18.02h-.18c-.1,0-.21.02-.33.07-.09-.03-.18-.05-.26-.07s-.18-.02-.29-.02c-.06,0-.12,0-.2.02-.07.01-.15.04-.22.07-.03-.03-.07-.05-.13-.06-.06,0-.12-.02-.2-.03-.06-.03-.12-.04-.19-.04s-.13,0-.21-.02c-.03,0-.07,0-.12.01-.05,0-.11.02-.17.03-.18.03-.29-.04-.33-.22,0-.06,0-.11-.01-.14,0-.04,0-.08,0-.12,0-.07-.02-.18-.04-.33,0-.04,0-.09-.02-.14-.02-.05-.03-.11-.04-.17-.01-.13-.03-.27-.04-.41-.02-.14-.03-.27-.04-.38v-.21c0-.07,0-.14-.02-.21.03-.07.06-.14.1-.2.04-.06.07-.12.1-.18.12-.19.23-.38.35-.58.12-.2.23-.38.35-.56.09-.13.19-.27.3-.41s.22-.28.32-.41c.31-.35.55-.75.73-1.19.09-.16.18-.32.26-.46.09-.15.2-.29.33-.44v-.04c-.03-.07-.07-.15-.12-.22-.05-.07-.11-.14-.16-.2-.15-.07-.3-.1-.46-.07-.21.03-.42.04-.65.02-.23-.01-.44-.01-.65,0h-.14c-.05,0-.09,0-.12-.02-.12-.06-.24-.09-.37-.1-.13,0-.26-.01-.37-.01-.15,0-.28-.07-.4-.2-.04-.07-.06-.15-.06-.22s0-.15-.01-.22c0-.06,0-.12.01-.19,0-.07,0-.13-.01-.19,0-.07,0-.14-.01-.21,0-.07-.01-.13-.01-.21.01-.04.03-.08.04-.12.01-.04.03-.08.04-.12.01-.07.02-.14,0-.21,0-.07,0-.13.01-.21.03-.07.04-.14.04-.2v-.18c0-.07,0-.15-.01-.23,0-.08.01-.17.05-.25.03-.01.05-.04.08-.07.02-.03.05-.05.1-.07.09-.04.18-.08.26-.12.09-.04.18-.08.26-.14.16.04.31.07.44.07.07,0,.15-.01.22-.03.07-.02.15-.04.22-.05.06.01.12.03.18.05.06.02.12.03.18.01.12-.03.22-.04.31-.04s.18.01.26.04c.12.02.24.02.36.02s.24,0,.34-.02c.1-.04.21-.04.31,0,.04,0,.09,0,.13.01.04,0,.08,0,.11-.01.16-.07.32-.11.46-.1.15,0,.29.01.44.01h.12c.05,0,.1,0,.14.02.06.03.12.06.19.1.07.04.13.07.19.1.07.01.15.03.24.03.09,0,.17.03.24.06.07.01.14.05.21.11.07.06.13.1.19.13h.24c.1.04.21.07.31.08.1,0,.21.01.33.01.19,0,.36.07.51.22.03.06.05.12.05.18s.02.12.03.18c-.02.09-.03.17-.04.25-.01.08-.03.17-.04.25v.44c0,.34-.08.69-.24,1.06-.02.06-.04.1-.08.13s-.07.07-.1.13l-.44.53c-.06.03-.1.07-.13.13s-.06.12-.09.2c-.03.15-.09.29-.18.42s-.18.26-.29.4c-.06.06-.11.12-.14.19-.04.07-.08.14-.14.21-.03.06-.06.11-.09.14-.03.04-.05.08-.07.14-.03.1-.07.2-.13.29-.06.09-.12.18-.18.29-.06.09-.11.18-.15.26s-.1.18-.18.26c-.06.09-.12.17-.19.25-.07.08-.14.17-.23.27.04.06.03.14-.04.23-.07.1-.1.17-.09.23.03.04.11.06.25.06.14,0,.23.02.28.08.22.03.43,0,.62-.09.28-.09.59-.12.92-.09.21.01.4.03.58.03.18,0,.37.02.56.03.02.03.03.05.03.07l.03.07c.03.1.05.21.08.33s.04.23.06.35c0,.02,0,.04-.01.08,0,.04,0,.07.01.1.1.19.15.38.14.58,0,.2,0,.38.01.56Z"/>
        <path class="cls-2" d="M300.39,543.72c.04.1.06.2.04.29s-.04.18-.09.26c-.01.01-.04.03-.09.06-.04.02-.08.05-.11.08-.06.02-.11.02-.15.02s-.1.01-.15.04c-.22.04-.35.16-.4.35-.01.03-.04.07-.09.11-.1.01-.18.03-.22.05-.04.02-.13.07-.26.14-.1,0-.21.01-.31.04-.1.03-.2.09-.29.18-.03,0-.05,0-.07.01-.01,0-.04.01-.07.01-.06.03-.12.02-.2-.03-.07-.05-.11-.11-.11-.19v-.13c-.06-.03-.13-.03-.21,0-.08.03-.14,0-.19-.09v-.33s-.08-.05-.12-.08c-.04-.02-.08-.04-.12-.05-.06-.12-.12-.24-.2-.37-.07-.13-.15-.25-.22-.35-.06-.04-.11-.06-.15-.04s-.08.04-.11.07-.05.06-.07.1c-.01.04-.04.07-.07.1s-.05.07-.07.11c-.02.04-.04.08-.07.11-.19.09-.38.17-.57.23-.19.07-.37.12-.55.17-.1.07-.21.14-.31.2-.1.06-.2.12-.29.18-.09.01-.18.04-.26.07s-.17.05-.24.07c-.09-.04-.17-.05-.25-.03-.08.02-.18.05-.3.08-.13-.03-.27-.06-.42-.1-.15-.04-.3-.07-.46-.1-.04.01-.09.02-.13.02s-.08,0-.11.02c-.06-.03-.11-.06-.14-.09s-.08-.05-.14-.07c-.07-.03-.14-.03-.2,0-.06.03-.12.06-.2.09-.07-.03-.15-.05-.24-.06-.09,0-.18-.02-.26-.03-.07-.07-.14-.14-.19-.2-.05-.06-.08-.13-.1-.22-.03-.03-.06-.05-.09-.08-.03-.02-.05-.04-.07-.06-.06-.21-.12-.38-.2-.53-.21-.44-.34-.92-.42-1.45-.03-.03-.06-.06-.09-.1-.03-.04-.07-.08-.11-.12-.02-.13-.03-.26-.04-.39-.01-.12-.04-.26-.07-.41.03-.09.04-.17.04-.24-.03-.15-.06-.28-.09-.4.06-.18.12-.35.19-.53.07-.18.08-.36.05-.55.03-.06.07-.11.11-.17.04-.05.08-.1.11-.14.13-.15.23-.32.29-.51.04-.16.12-.3.23-.42.11-.12.23-.21.36-.29.16-.07.32-.15.47-.23.15-.08.3-.15.45-.21.03,0,.07,0,.12.01.05,0,.09,0,.12-.01.26-.04.49-.06.68-.04.09.01.18.01.26,0,.09-.01.17-.02.24-.02l.46-.09c.09.01.18.04.26.07.09.03.18.02.26-.02.03,0,.06,0,.08.01.02,0,.04.01.05.01.07.03.14.06.2.1.06.04.12.05.2.05.16.03.26,0,.31-.09-.01-.25-.03-.41-.05-.48-.02-.07-.07-.19-.14-.35-.04-.09-.07-.18-.09-.28-.02-.09-.03-.19-.04-.27-.01-.06-.03-.11-.03-.17,0-.05-.04-.11-.1-.17-.19-.06-.43-.1-.71-.13h-.13c-.13.06-.27.09-.42.09s-.3.01-.46.04c-.1.01-.21.04-.32.09-.11.04-.22.08-.34.11-.12.06-.23.03-.35-.09-.04-.13-.06-.27-.05-.41,0-.14.02-.28.03-.43-.03-.1-.07-.22-.11-.36-.04-.14-.07-.3-.07-.49l.02-.15s-.04-.06-.08-.09-.07-.05-.1-.07c-.04-.04-.05-.09-.02-.13,0-.04.02-.07.07-.07.12-.03.23-.05.33-.07.1-.01.21-.03.31-.04l.26-.26s.07-.02.11-.02c.34.06.58.08.74.07s.39-.07.71-.18c.16.01.32.04.47.07s.31.04.47.02c.04.04.09.08.14.12.05.04.11.08.17.12.07-.03.15-.05.22-.08.07-.02.14-.04.2-.05.09.06.18.12.29.18.07.01.14,0,.19-.04.05-.04.11-.07.17-.07.13.01.24.08.32.19.08.11.17.2.28.28.09.06.17.13.25.22.08.09.17.17.25.24l.09.13s.05.09.07.13c.07.06.14.11.2.14.06.04.11.08.15.14.07.06.15.1.23.13.08.03.14.08.19.15.03.07.06.15.09.23.03.08.08.15.15.21.04.15.09.3.13.45.04.15.05.31.02.47,0,.07,0,.14-.02.2.03.07.05.15.07.24.01.09.04.17.07.24v.11s0,.09-.01.14c0,.05,0,.09.01.12.03.09.07.15.11.2,0,.09-.04.17-.11.24-.03.01-.07.03-.11.04-.04.01-.08.04-.11.07-.18.1-.2.24-.07.4l.08.08s.06.08.08.12c.01.06.02.12.02.19s0,.14.02.21c-.06.28-.17.54-.33.79.04.21.11.4.21.59.1.19.18.39.25.59.07.04.13.09.18.13.04.04.09.08.15.11.01.04.03.07.03.09,0,.02.01.04.01.07,0,.15.02.29.05.44s.08.29.14.42c.06.13.12.26.18.37s.13.23.22.35c.07.06.13.14.18.24.04.1.08.19.11.26ZM290.91,544.36s-.02.02-.02.04c.03-.03.04-.04.02-.04ZM295.57,540.75c-.09-.22-.2-.37-.33-.44-.16-.07-.26-.17-.31-.29-.01-.06-.04-.09-.09-.11l-.13-.04c-.06,0-.13,0-.21.01-.08,0-.16.02-.23.03-.09,0-.17-.01-.25-.04-.08-.03-.16-.05-.23-.07-.13,0-.26.04-.37.11-.06.04-.11.08-.15.12-.04.04-.09.08-.13.14l-.29.53c.03.09.07.17.11.23.04.07.04.16,0,.28.03.13.06.27.1.41s.09.27.17.41c.03.03.05.04.07.04.16.03.32.04.48.04s.32,0,.46-.02c.06,0,.1,0,.13-.02.16-.09.36-.17.59-.24.09-.01.17-.08.24-.2.06-.13.12-.28.18-.43.06-.15.12-.3.2-.45Z"/>
        <path class="cls-2" d="M310.99,543.32c-.16.25-.37.42-.62.51-.16.06-.31.13-.46.22-.15.09-.29.18-.44.29-.03.06-.09.1-.18.11-.04-.01-.09-.03-.15-.04-.06-.01-.12-.03-.2-.04l-.37-.07c-.1-.07-.19-.15-.26-.23-.07-.08-.15-.17-.22-.25-.15-.18-.25-.29-.31-.33s-.19-.12-.4-.22c-.07-.16-.14-.33-.2-.5-.06-.17-.08-.26-.07-.27.06-.03.06-.09.01-.19-.05-.09-.09-.15-.12-.17-.09-.06-.14-.09-.15-.09-.09-.01-.18-.02-.29-.02h-.31c-.06-.04-.12-.08-.18-.11s-.12-.06-.2-.09c-.1.01-.18.06-.22.14-.04.08-.08.16-.11.23-.01.04-.02.11-.02.2,0,.1,0,.21.01.33,0,.12,0,.24-.03.35-.03.1-.05.21-.05.31,0,.1-.01.21-.01.33-.01.06-.03.12-.04.2s-.04.15-.07.22c-.06.1-.1.21-.12.33-.02.12-.07.22-.14.31-.35.09-.58.14-.67.15s-.25.01-.47,0l-.09.04s-.07.03-.11.04c-.1-.04-.21-.1-.33-.17-.12-.07-.24-.13-.35-.19-.1-.06-.15-.14-.15-.24-.01-.25-.05-.5-.1-.74-.05-.24-.07-.49-.05-.74-.04-.18-.06-.36-.06-.55,0-.19,0-.38-.03-.57-.01-.06-.02-.11-.02-.17v-.17c.03-.12.05-.25.07-.4-.01-.03-.03-.07-.05-.12-.02-.05-.05-.09-.08-.12-.04-.15-.06-.28-.04-.4s.03-.23.03-.34c0-.11,0-.23-.03-.36,0-.07,0-.14.01-.19,0-.05.02-.11.03-.17.07-.18.07-.36-.02-.55-.03-.12-.07-.23-.11-.35s-.09-.23-.13-.35v-.2c0-.07,0-.15.02-.22,0-.16,0-.32,0-.47,0-.15,0-.3,0-.45v-.13c.03-.1.05-.21.05-.32,0-.11.02-.22.03-.32.04-.12.07-.24.08-.37s.02-.25.03-.35c0-.25.02-.48.07-.7.03-.06.04-.11.04-.17v-.14c0-.07,0-.14-.03-.2-.02-.06-.03-.12-.03-.18,0-.07.01-.14.03-.21.02-.07.03-.13.03-.19v-.75c.02-.15.02-.29.02-.44s0-.3.02-.46c-.02-.01-.03-.04-.04-.07-.01-.03-.04-.07-.07-.11-.03-.09,0-.13.07-.13.29-.12.58-.25.86-.4.03,0,.05,0,.07-.01.01,0,.03-.01.04-.01.13-.03.26-.06.38-.08.12-.02.24-.07.34-.14.03-.04.09-.07.2-.07.16,0,.3-.03.42-.09.1-.03.19-.03.26-.01.07.02.15.05.22.08v.18c0,.07,0,.12.02.13,0,.03.01.04.04.04.22.18.33.42.33.75,0,.06,0,.12.01.18s.02.12.03.2v.18c-.01.13-.04.26-.07.37s-.05.23-.07.35c.03.15.06.3.08.45s0,.3-.05.45v.2c.03.1.04.21.02.31s-.02.21-.02.33v.24c.04.15.05.29.03.44-.02.15-.05.29-.08.42.02.07.03.14.03.21,0,.07.02.14.03.21-.01.07-.03.15-.04.23-.01.08-.03.16-.04.23,0,.1,0,.2.01.3,0,.09.02.2.03.32-.01.07-.03.16-.04.25-.01.1-.04.19-.07.28,0,.04.03.08.09.11.02,0,.03,0,.04-.02.06,0,.09-.02.11-.07.12-.13.26-.26.42-.37.07-.04.14-.1.2-.15s.13-.11.22-.15c.04-.01.11-.07.2-.15.12-.09.23-.18.35-.26.12-.09.24-.15.37-.2.13-.16.23-.3.29-.42.07-.03.14-.06.2-.1.06-.04.1-.06.13-.08.04-.04.08-.09.11-.13l.09-.26c.03-.09.07-.18.11-.26.1-.09.2-.18.3-.26.09-.09.19-.18.3-.29.09-.01.17,0,.24.03.07.04.15.07.24.1.15.24.32.45.52.64.2.19.4.37.61.55.07.01.13.09.18.22.04.13.04.24,0,.33-.04.01-.09.04-.14.09-.05.04-.11.08-.19.11-.1.21-.22.41-.34.62-.12.21-.25.42-.36.64-.04.09-.09.17-.13.25-.04.08-.1.15-.18.21-.06.03-.1.07-.11.11-.01.04-.04.1-.07.15-.06.15-.12.27-.2.37-.07.1-.16.21-.26.31-.04.03-.09.07-.13.13s-.08.11-.11.15c-.01.02-.02.04-.02.07.01.15.07.26.15.34.09.08.14.18.15.3.07.03.14.07.21.11.07.04.13.08.19.11.13.18.28.35.44.52.16.17.31.33.46.5.15.15.28.3.4.47.12.17.21.35.29.54.03.06.05.12.05.18,0,.06,0,.12-.03.18Z"/>
        <path class="cls-2" d="M322.43,537.03c-.02.15-.03.3-.03.45,0,.15-.03.3-.05.45-.02.15-.02.3-.02.47s-.03.34-.09.52c-.03.04-.07.09-.11.14-.04.05-.09.11-.13.19,0,.06,0,.11.01.15,0,.04.02.09.03.15-.03.07-.07.14-.13.19s-.12.09-.18.12c-.15.04-.28.09-.41.13s-.25.08-.38.11c-.21.03-.42.03-.64.01-.22-.02-.44-.03-.66-.01-.19,0-.39,0-.6.01-.21,0-.43.01-.65.01h-1.23c-.06.04-.12.06-.19.04-.07-.01-.13,0-.19.02-.06-.03-.12-.03-.2-.01-.07.02-.15.02-.22-.01-.06.01-.11.03-.17.03-.05,0-.11.02-.19.03-.06-.01-.11-.03-.15-.06-.04-.02-.1-.01-.15.03.03.04.06.09.1.14.04.05.06.11.08.19.04.06.08.12.11.18.03.06.06.12.09.2.03.06.05.12.07.19.01.07.03.13.04.19.07.07.15.15.24.22.09.07.18.15.26.22.07.01.15.03.23.04.08.01.16.03.23.04.09.01.18.03.26.04s.18.01.29,0c.1-.03.2-.03.29.01.09.04.18.06.29.08.13-.01.27-.03.41-.04s.27-.03.41-.04c.06-.04.12-.08.19-.12.07-.04.13-.08.19-.12.19-.04.38-.04.57.02.04.07.1.15.17.22.07.07.13.15.19.24.09.13.18.26.26.38s.15.27.18.43c.03.07.07.15.13.22.06.07.1.14.13.2.01.07.01.14-.01.2-.02.06-.04.12-.05.2-.06.06-.13.11-.22.15-.01,0-.03.01-.04.04-.02.03-.04.05-.07.07l-.26.18c-.09.06-.17.12-.24.18-.21.18-.42.26-.64.26-.09,0-.15,0-.2.02-.07.01-.15.04-.22.09-.07.04-.15.08-.24.11-.07,0-.15.01-.22.03-.07.02-.15.04-.22.05-.04,0-.1,0-.15-.01-.06,0-.12-.01-.18-.01-.13.01-.26,0-.4-.02s-.26-.04-.4-.04c-.04-.01-.09-.03-.13-.04s-.09-.02-.13-.02c-.25.02-.48-.03-.7-.12-.22-.1-.44-.19-.66-.3-.18-.04-.3-.12-.37-.24-.1-.12-.22-.22-.34-.3-.12-.08-.26-.15-.41-.21-.09-.03-.18-.07-.26-.12-.09-.05-.18-.11-.29-.17-.01-.06-.04-.12-.07-.18-.03-.06-.06-.12-.09-.18-.03-.04-.07-.09-.12-.13-.05-.04-.1-.09-.14-.13s-.08-.1-.11-.15c-.07-.25-.15-.5-.22-.74-.07-.24-.17-.48-.29-.71.01-.1.03-.21.03-.32,0-.11,0-.23-.03-.36-.02-.03-.02-.07-.02-.11v-.11c0-.07,0-.14.01-.19,0-.05,0-.1-.01-.14-.01-.12-.03-.23-.04-.35-.02-.12,0-.23.02-.33l.09-.35c.03-.12.07-.24.11-.37-.01-.03-.02-.07-.02-.13s0-.12-.02-.18c.03-.16.06-.32.09-.48s.07-.32.11-.46c.04-.09.09-.17.14-.25.05-.08.11-.17.17-.25.1-.18.18-.34.24-.51.18-.09.28-.14.32-.17.04-.02.07-.06.1-.1s.12-.13.29-.26c-.01-.04.02-.11.11-.2s.12-.16.09-.22c.13-.25.32-.45.57-.59.09-.06.17-.12.25-.19.08-.07.15-.13.21-.19.07-.04.14-.06.21-.06.07,0,.13.01.19.01.04-.01.09-.03.14-.03s.11-.02.17-.03c.03-.01.07-.03.11-.04s.08-.04.11-.07c.03-.01.06-.03.09-.04s.06-.02.09-.02c.13-.01.26-.05.38-.11s.23-.12.33-.18c.22.09.45.12.68.09.15-.01.29,0,.43.02.14.03.27.07.38.11l.31-.09c.12.01.23.05.33.11l.31.18h.2s.03.03.04.03c.01,0,.03.02.04.03.16.15.32.28.46.41.15.12.3.25.46.39.22.15.36.32.42.53.06.09.11.15.15.2.18.15.33.34.46.59,0,.03,0,.07.01.12,0,.05,0,.1,0,.14-.01.07,0,.15.04.22.04.07.07.15.09.24ZM319.64,537.76v-.55c0-.07,0-.12-.02-.13-.01-.04-.03-.09-.05-.13-.02-.04-.04-.07-.05-.09v-.37l-.07-.07c-.06,0-.13-.01-.22-.04-.03-.13-.07-.23-.11-.31-.04-.06-.1-.09-.18-.11-.07-.01-.15-.04-.24-.07-.19.06-.4.11-.62.15-.22.04-.43.1-.64.18-.1.01-.2.02-.29.02s-.18,0-.26.02c-.15.06-.27.15-.38.28-.11.12-.22.25-.32.36-.06.07-.11.15-.15.24s-.1.17-.15.24c-.01.01-.02.06-.02.13.04.12.11.19.2.22.09.01.18.04.26.07s.18.06.29.09c.04-.01.08-.02.12-.02s.08,0,.12-.02c.18-.07.32-.08.44-.02.12.01.22.01.32,0,.09-.01.19-.03.3-.04.09.04.18.07.27.09.1.01.19.04.28.07.19.06.37.09.55.09s.35-.02.53-.07c.07-.07.11-.14.11-.2Z"/>
      </g>
      <g>
        <g>
          <polygon class="cls-4" points="234.06 396.81 200.62 454.72 267.49 454.72 234.06 396.81"/>
          <polygon class="cls-4" points="203.44 420.77 170 478.69 236.87 478.69 203.44 420.77"/>
          <polygon class="cls-4" points="258.89 420.54 210.86 491.77 308.16 489.34 258.89 420.54"/>
        </g>
        <path class="cls-3" d="M248.04,426.76s-10.65,17.31-19.97,21.3c-9.32,3.99-11.98,3.43-15.98,9.04-3.99,5.61-7.99,17.59-9.32,20.25s-3.48,10.28-3.48,10.28l-1.84,4.37"/>
        <path class="cls-3" d="M255.18,431.36c-7.23,5.84-11.69,12.3-17.76,16.76-7.84,5.76-11.67,6.22-15.17,11.59-3.5,5.36-6.4,16.34-7.5,18.83-1.09,2.49-2.55,9.42-2.55,9.42l-1.45,4.04"/>
      </g>
    </g>
  </g>
</svg>