<!--?xml version="1.0" encoding="utf-8"?-->
<!-- Generator: Adobe Illustrator 18.1.1, SVG Export Plug-In . SVG Version: 6.00 Build 0)  -->

<svg version="1.1" id="_x32_" xmlns="http://www.w3.org/2000/svg" xmlns:xlink="http://www.w3.org/1999/xlink" x="0px" y="0px" viewBox="0 0 512 512" style="width: 256px; height: 256px; opacity: 1;" xml:space="preserve">
<style type="text/css">
	.st0{fill:#4B4B4B;}
</style>
<g>
	<path class="st0" d="M5.505,233.975h500.99v-99.092H5.505V233.975z M374.362,160.612c9.838,0,17.81,7.972,17.81,17.809
		c0,9.837-7.972,17.81-17.81,17.81c-9.837,0-17.802-7.973-17.802-17.81C356.559,168.584,364.524,160.612,374.362,160.612z
		 M137.631,160.612c9.837,0,17.81,7.972,17.81,17.809c0,9.837-7.973,17.81-17.81,17.81c-9.83,0-17.802-7.973-17.802-17.81
		C119.829,168.584,127.802,160.612,137.631,160.612z" style="fill: rgb(75, 75, 75);"></path>
	<path class="st0" d="M5.505,349.591v90.837H49.55v-90.837h412.9v90.837h44.045v-90.837v-99.1H5.505V349.591z M374.362,276.228
		c9.838,0,17.81,7.972,17.81,17.809c0,9.83-7.972,17.802-17.81,17.802c-9.837,0-17.802-7.973-17.802-17.802
		C356.559,284.201,364.524,276.228,374.362,276.228z M137.631,276.228c9.837,0,17.81,7.972,17.81,17.809
		c0,9.83-7.973,17.802-17.81,17.802c-9.83,0-17.802-7.973-17.802-17.802C119.829,284.201,127.802,276.228,137.631,276.228z" style="fill: rgb(75, 75, 75);"></path>
	<rect y="71.572" class="st0" width="512" height="44.044" style="fill: rgb(75, 75, 75);"></rect>
</g>
</svg>
